<?xml version="1.0" encoding="iso-8859-1" ?>
              <svg
                version="1.1"
                xmlns="http://www.w3.org/2000/svg"
                xmlns:xlink="http://www.w3.org/1999/xlink"
                viewBox="0 0 1396 785.25"
                width="1396"
                height="785.25"
              >
                <g transform="translate(183.574 -17.757) scale(1.384 1.384) rotate(0 399.8916184971099 299.91329479768785)">  <g>   <polygon style="fill:#EEEEEE;" points="-93.121,433.089 -86.871,433.112 -87.019,428.636 -93.269,428.612  "/>   <polygon style="fill:#EEEEEE;" points="-79.779,433.138 -73.53,433.161 -73.677,428.685 -79.927,428.662  "/>   <polygon style="fill:#EEEEEE;" points="-66.437,433.188 -60.188,433.212 -60.335,428.735 -66.585,428.712  "/>   <polygon style="fill:#EEEEEE;" points="-53.095,433.238 -46.847,433.261 -46.994,428.785 -53.243,428.761  "/>   <polygon style="fill:#EEEEEE;" points="-39.754,433.287 -33.505,433.31 -33.653,428.834 -39.901,428.811  "/>   <polygon style="fill:#EEEEEE;" points="-26.413,433.337 -20.163,433.36 -20.311,428.884 -26.56,428.861  "/>   <polygon style="fill:#EEEEEE;" points="-13.071,433.387 -6.821,433.41 -6.969,428.934 -13.219,428.91  "/>   <polygon style="fill:#EEEEEE;" points="0.271,433.436 6.521,433.459 6.373,428.983 0.123,428.96  "/>   <polygon style="fill:#EEEEEE;" points="13.613,433.485 19.863,433.509 19.715,429.033 13.465,429.009  "/>   <polygon style="fill:#EEEEEE;" points="30.236,433.548 36.485,433.571 36.337,429.095 30.088,429.071  "/>   <polygon style="fill:#EEEEEE;" points="43.577,433.597 49.827,433.62 49.679,429.144 43.43,429.121  "/>   <polygon style="fill:#EEEEEE;" points="56.919,433.646 63.169,433.67 63.021,429.194 56.771,429.17  "/>   <polygon style="fill:#EEEEEE;" points="70.261,433.697 76.51,433.719 76.363,429.243 70.113,429.22  "/>   <polygon style="fill:#EEEEEE;" points="83.603,433.746 89.852,433.769 89.705,429.293 83.455,429.27  "/>   <polygon style="fill:#EEEEEE;" points="96.945,433.795 103.194,433.819 103.046,429.343 96.797,429.319  "/>   <polygon style="fill:#EEEEEE;" points="110.287,433.845 116.536,433.868 116.388,429.392 110.139,429.369  "/>   <polygon style="fill:#EEEEEE;" points="123.628,433.895 129.878,433.918 129.73,429.441 123.481,429.419  "/>   <polygon style="fill:#EEEEEE;" points="136.97,433.944 143.219,433.968 143.072,429.492 136.823,429.468  "/>   <polygon style="fill:#EEEEEE;" points="152.647,434.003 158.897,434.026 158.749,429.55 152.499,429.526  "/>   <polygon style="fill:#EEEEEE;" points="165.989,434.052 172.239,434.075 172.091,429.599 165.841,429.576  "/>   <polygon style="fill:#EEEEEE;" points="179.331,434.101 185.58,434.125 185.433,429.649 179.183,429.625  "/>   <polygon style="fill:#EEEEEE;" points="192.673,434.152 198.921,434.175 198.774,429.698 192.525,429.676  "/>   <polygon style="fill:#EEEEEE;" points="206.014,434.201 212.263,434.225 212.115,429.748 205.867,429.725  "/>   <polygon style="fill:#EEEEEE;" points="219.356,434.25 225.605,434.274 225.457,429.798 219.208,429.774  "/>   <polygon style="fill:#EEEEEE;" points="232.697,434.3 238.947,434.323 238.799,429.847 232.55,429.824  "/>   <polygon style="fill:#EEEEEE;" points="246.039,434.35 252.289,434.373 252.141,429.897 245.891,429.874  "/>   <polygon style="fill:#EEEEEE;" points="259.381,434.4 265.631,434.423 265.483,429.947 259.233,429.923  "/>   <polygon style="fill:#EEEEEE;" points="276.004,434.462 282.253,434.484 282.105,430.008 275.856,429.985  "/>   <polygon style="fill:#EEEEEE;" points="289.345,434.511 295.595,434.534 295.447,430.058 289.198,430.035  "/>   <polygon style="fill:#EEEEEE;" points="302.687,434.56 308.937,434.584 308.789,430.108 302.539,430.084  "/>   <polygon style="fill:#EEEEEE;" points="316.029,434.61 322.279,434.633 322.131,430.157 315.881,430.134  "/>   <polygon style="fill:#EEEEEE;" points="329.371,434.66 335.62,434.683 335.473,430.206 329.223,430.184  "/>   <polygon style="fill:#EEEEEE;" points="342.713,434.71 348.962,434.733 348.815,430.257 342.565,430.233  "/>   <polygon style="fill:#EEEEEE;" points="356.055,434.759 362.304,434.782 362.156,430.306 355.907,430.283  "/>   <polygon style="fill:#EEEEEE;" points="369.397,434.808 375.646,434.832 375.498,430.355 369.249,430.332  "/>   <polygon style="fill:#EEEEEE;" points="382.591,430.382 382.738,434.858 388.987,434.881 388.84,430.405  "/>   <polygon style="fill:#EEEEEE;" points="-109.855,441.525 -103.606,441.548 -103.753,437.072 -110.002,437.049  "/>   <polygon style="fill:#EEEEEE;" points="-90.412,437.122 -96.661,437.099 -96.513,441.575 -90.264,441.598  "/>   <polygon style="fill:#EEEEEE;" points="-77.07,437.172 -83.319,437.148 -83.171,441.624 -76.922,441.648  "/>   <polygon style="fill:#EEEEEE;" points="-63.728,437.221 -69.977,437.198 -69.83,441.674 -63.58,441.697  "/>   <polygon style="fill:#EEEEEE;" points="-50.386,437.27 -56.635,437.247 -56.488,441.724 -50.238,441.746  "/>   <polygon style="fill:#EEEEEE;" points="-37.044,437.321 -43.294,437.297 -43.146,441.773 -36.896,441.797  "/>   <polygon style="fill:#EEEEEE;" points="-23.702,437.37 -29.952,437.347 -29.804,441.823 -23.554,441.846  "/>   <polygon style="fill:#EEEEEE;" points="-10.36,437.419 -16.61,437.396 -16.462,441.872 -10.213,441.896  "/>   <polygon style="fill:#EEEEEE;" points="2.981,437.469 -3.268,437.446 -3.12,441.922 3.128,441.945  "/>   <polygon style="fill:#EEEEEE;" points="19.604,437.531 13.354,437.507 13.502,441.984 19.752,442.007  "/>   <polygon style="fill:#EEEEEE;" points="32.946,437.58 26.696,437.557 26.844,442.033 33.094,442.056  "/>   <polygon style="fill:#EEEEEE;" points="46.288,437.63 40.038,437.607 40.186,442.083 46.435,442.106  "/>   <polygon style="fill:#EEEEEE;" points="59.629,437.68 53.38,437.657 53.528,442.133 59.777,442.156  "/>   <polygon style="fill:#EEEEEE;" points="72.971,437.729 66.722,437.706 66.87,442.182 73.119,442.206  "/>   <polygon style="fill:#EEEEEE;" points="86.313,437.779 80.064,437.755 80.211,442.231 86.46,442.255  "/>   <polygon style="fill:#EEEEEE;" points="99.654,437.828 93.406,437.806 93.553,442.282 99.802,442.304  "/>   <polygon style="fill:#EEEEEE;" points="112.996,437.878 106.747,437.855 106.894,442.331 113.144,442.355  "/>   <polygon style="fill:#EEEEEE;" points="126.338,437.928 120.088,437.904 120.236,442.381 126.486,442.404  "/>   <polygon style="fill:#EEEEEE;" points="142.015,437.986 135.766,437.963 135.913,442.439 142.162,442.462  "/>   <polygon style="fill:#EEEEEE;" points="155.357,438.035 149.107,438.012 149.255,442.488 155.504,442.511  "/>   <polygon style="fill:#EEEEEE;" points="168.698,438.085 162.449,438.062 162.597,442.538 168.846,442.562  "/>   <polygon style="fill:#EEEEEE;" points="182.04,438.135 175.791,438.112 175.938,442.588 182.188,442.611  "/>   <polygon style="fill:#EEEEEE;" points="195.382,438.184 189.133,438.161 189.28,442.637 195.53,442.661  "/>   <polygon style="fill:#EEEEEE;" points="208.724,438.234 202.475,438.21 202.622,442.687 208.872,442.71  "/>   <polygon style="fill:#EEEEEE;" points="222.066,438.284 215.816,438.261 215.964,442.737 222.214,442.76  "/>   <polygon style="fill:#EEEEEE;" points="235.408,438.333 229.158,438.31 229.306,442.786 235.555,442.81  "/>   <polygon style="fill:#EEEEEE;" points="248.749,438.383 242.5,438.359 242.648,442.836 248.897,442.859  "/>   <polygon style="fill:#EEEEEE;" points="265.372,438.445 259.122,438.422 259.27,442.898 265.52,442.921  "/>   <polygon style="fill:#EEEEEE;" points="278.714,438.494 272.464,438.471 272.612,442.947 278.862,442.971  "/>   <polygon style="fill:#EEEEEE;" points="292.056,438.544 285.806,438.52 285.954,442.997 292.203,443.02  "/>   <polygon style="fill:#EEEEEE;" points="305.398,438.593 299.148,438.57 299.296,443.047 305.545,443.069  "/>   <polygon style="fill:#EEEEEE;" points="318.739,438.643 312.49,438.62 312.638,443.096 318.887,443.12  "/>   <polygon style="fill:#EEEEEE;" points="332.081,438.693 325.832,438.669 325.98,443.146 332.228,443.169  "/>   <polygon style="fill:#EEEEEE;" points="345.422,438.742 339.174,438.719 339.321,443.195 345.57,443.218  "/>   <polygon style="fill:#EEEEEE;" points="358.764,438.791 352.515,438.769 352.662,443.245 358.912,443.268  "/>   <polygon style="fill:#EEEEEE;" points="372.106,438.842 365.856,438.818 366.004,443.295 372.254,443.318  "/>   <polygon style="fill:#EEEEEE;" points="-92.554,450.257 -86.305,450.281 -86.453,445.805 -92.702,445.781  "/>   <polygon style="fill:#EEEEEE;" points="-79.213,450.308 -72.963,450.331 -73.111,445.855 -79.36,445.832  "/>   <polygon style="fill:#EEEEEE;" points="-65.871,450.357 -59.622,450.381 -59.769,445.904 -66.018,445.881  "/>   <polygon style="fill:#EEEEEE;" points="-52.529,450.407 -46.28,450.43 -46.428,445.954 -52.677,445.93  "/>   <polygon style="fill:#EEEEEE;" points="-39.188,450.456 -32.938,450.479 -33.086,446.003 -39.335,445.98  "/>   <polygon style="fill:#EEEEEE;" points="-25.846,450.506 -19.596,450.53 -19.744,446.053 -25.994,446.03  "/>   <polygon style="fill:#EEEEEE;" points="-12.504,450.556 -6.254,450.579 -6.402,446.103 -12.652,446.079  "/>   <polygon style="fill:#EEEEEE;" points="0.838,450.605 7.088,450.628 6.94,446.152 0.69,446.129  "/>   <polygon style="fill:#EEEEEE;" points="14.18,450.654 20.429,450.678 20.282,446.201 14.032,446.178  "/>   <polygon style="fill:#EEEEEE;" points="30.802,450.717 37.051,450.74 36.904,446.264 30.655,446.24  "/>   <polygon style="fill:#EEEEEE;" points="44.144,450.766 50.393,450.789 50.246,446.313 43.996,446.29  "/>   <polygon style="fill:#EEEEEE;" points="57.486,450.816 63.735,450.839 63.587,446.362 57.338,446.34  "/>   <polygon style="fill:#EEEEEE;" points="70.828,450.866 77.077,450.889 76.929,446.413 70.68,446.389  "/>   <polygon style="fill:#EEEEEE;" points="84.169,450.915 90.419,450.938 90.271,446.462 84.022,446.439  "/>   <polygon style="fill:#EEEEEE;" points="97.511,450.964 103.761,450.988 103.613,446.511 97.363,446.488  "/>   <polygon style="fill:#EEEEEE;" points="110.853,451.014 117.103,451.037 116.955,446.561 110.705,446.538  "/>   <polygon style="fill:#EEEEEE;" points="124.195,451.064 130.444,451.087 130.297,446.611 124.047,446.588  "/>   <polygon style="fill:#EEEEEE;" points="137.537,451.113 143.786,451.137 143.638,446.661 137.389,446.637  "/>   <polygon style="fill:#EEEEEE;" points="153.214,451.172 159.463,451.195 159.315,446.719 153.066,446.695  "/>   <polygon style="fill:#EEEEEE;" points="166.556,451.221 172.805,451.244 172.657,446.768 166.408,446.745  "/>   <polygon style="fill:#EEEEEE;" points="179.897,451.271 186.146,451.294 185.999,446.818 179.75,446.795  "/>   <polygon style="fill:#EEEEEE;" points="193.239,451.321 199.488,451.344 199.34,446.868 193.091,446.844  "/>   <polygon style="fill:#EEEEEE;" points="206.58,451.37 212.83,451.393 212.682,446.917 206.433,446.894  "/>   <polygon style="fill:#EEEEEE;" points="219.922,451.419 226.172,451.443 226.024,446.967 219.774,446.943  "/>   <polygon style="fill:#EEEEEE;" points="233.264,451.47 239.514,451.492 239.366,447.016 233.116,446.993  "/>   <polygon style="fill:#EEEEEE;" points="246.606,451.519 252.856,451.542 252.708,447.066 246.458,447.043  "/>   <polygon style="fill:#EEEEEE;" points="259.948,451.568 266.198,451.592 266.05,447.116 259.8,447.092  "/>   <polygon style="fill:#EEEEEE;" points="276.57,451.631 282.819,451.654 282.672,447.178 276.423,447.154  "/>   <polygon style="fill:#EEEEEE;" points="289.912,451.68 296.161,451.703 296.014,447.227 289.764,447.204  "/>   <polygon style="fill:#EEEEEE;" points="303.254,451.729 309.503,451.753 309.355,447.277 303.106,447.253  "/>   <polygon style="fill:#EEEEEE;" points="316.596,451.779 322.845,451.802 322.697,447.326 316.448,447.303  "/>   <polygon style="fill:#EEEEEE;" points="329.937,451.829 336.187,451.852 336.039,447.376 329.79,447.353  "/>   <polygon style="fill:#EEEEEE;" points="343.279,451.878 349.529,451.902 349.381,447.426 343.132,447.402  "/>   <polygon style="fill:#EEEEEE;" points="356.621,451.928 362.871,451.951 362.723,447.475 356.473,447.452  "/>   <polygon style="fill:#EEEEEE;" points="369.963,451.978 376.212,452 376.065,447.524 369.815,447.501  "/>   <polygon style="fill:#EEEEEE;" points="383.305,452.027 389.554,452.051 389.406,447.574 383.157,447.551  "/>   <polygon style="fill:#EEEEEE;" points="-109.289,458.694 -103.039,458.718 -103.187,454.241 -109.436,454.218  "/>   <polygon style="fill:#EEEEEE;" points="-89.845,454.291 -96.095,454.268 -95.947,458.744 -89.697,458.767  "/>   <polygon style="fill:#EEEEEE;" points="-76.503,454.34 -82.753,454.317 -82.605,458.793 -76.355,458.817  "/>   <polygon style="fill:#EEEEEE;" points="-63.161,454.39 -69.411,454.366 -69.263,458.843 -63.013,458.866  "/>   <polygon style="fill:#EEEEEE;" points="-49.819,454.44 -56.069,454.417 -55.921,458.893 -49.671,458.916  "/>   <polygon style="fill:#EEEEEE;" points="-36.477,454.489 -42.727,454.466 -42.579,458.942 -36.329,458.966  "/>   <polygon style="fill:#EEEEEE;" points="-23.135,454.539 -29.385,454.515 -29.237,458.992 -22.988,459.015  "/>   <polygon style="fill:#EEEEEE;" points="-9.794,454.588 -16.043,454.565 -15.895,459.041 -9.647,459.064  "/>   <polygon style="fill:#EEEEEE;" points="3.547,454.638 -2.701,454.615 -2.554,459.091 3.695,459.115  "/>   <polygon style="fill:#EEEEEE;" points="20.17,454.7 13.921,454.676 14.069,459.153 20.318,459.176  "/>   <polygon style="fill:#EEEEEE;" points="33.512,454.749 27.263,454.727 27.41,459.203 33.66,459.225  "/>   <polygon style="fill:#EEEEEE;" points="46.854,454.799 40.605,454.776 40.752,459.252 47.002,459.276  "/>   <polygon style="fill:#EEEEEE;" points="60.196,454.849 53.947,454.825 54.094,459.302 60.344,459.325  "/>   <polygon style="fill:#EEEEEE;" points="73.538,454.898 67.288,454.875 67.436,459.351 73.685,459.374  "/>   <polygon style="fill:#EEEEEE;" points="86.879,454.947 80.63,454.925 80.778,459.401 87.027,459.424  "/>   <polygon style="fill:#EEEEEE;" points="100.221,454.998 93.972,454.974 94.119,459.451 100.369,459.474  "/>   <polygon style="fill:#EEEEEE;" points="113.563,455.047 107.313,455.024 107.461,459.5 113.711,459.523  "/>   <polygon style="fill:#EEEEEE;" points="126.905,455.097 120.655,455.073 120.803,459.549 127.053,459.573  "/>   <polygon style="fill:#EEEEEE;" points="142.581,455.155 136.332,455.131 136.479,459.608 142.729,459.631  "/>   <polygon style="fill:#EEEEEE;" points="155.923,455.204 149.674,455.182 149.821,459.658 156.071,459.681  "/>   <polygon style="fill:#EEEEEE;" points="169.265,455.254 163.015,455.231 163.163,459.707 169.413,459.731  "/>   <polygon style="fill:#EEEEEE;" points="182.607,455.304 176.357,455.28 176.505,459.757 182.755,459.78  "/>   <polygon style="fill:#EEEEEE;" points="195.949,455.353 189.699,455.33 189.847,459.806 196.097,459.829  "/>   <polygon style="fill:#EEEEEE;" points="209.291,455.403 203.041,455.38 203.189,459.856 209.439,459.879  "/>   <polygon style="fill:#EEEEEE;" points="222.633,455.453 216.383,455.429 216.531,459.906 222.78,459.929  "/>   <polygon style="fill:#EEEEEE;" points="235.974,455.502 229.725,455.479 229.873,459.955 236.121,459.978  "/>   <polygon style="fill:#EEEEEE;" points="249.316,455.552 243.067,455.528 243.214,460.004 249.463,460.028  "/>   <polygon style="fill:#EEEEEE;" points="265.938,455.614 259.689,455.59 259.837,460.067 266.086,460.09  "/>   <polygon style="fill:#EEEEEE;" points="279.28,455.663 273.031,455.64 273.179,460.116 279.428,460.139  "/>   <polygon style="fill:#EEEEEE;" points="292.622,455.713 286.373,455.689 286.52,460.166 292.77,460.189  "/>   <polygon style="fill:#EEEEEE;" points="305.964,455.763 299.715,455.739 299.862,460.216 306.112,460.239  "/>   <polygon style="fill:#EEEEEE;" points="319.306,455.812 313.056,455.789 313.204,460.265 319.453,460.288  "/>   <polygon style="fill:#EEEEEE;" points="332.647,455.862 326.398,455.838 326.546,460.314 332.795,460.338  "/>   <polygon style="fill:#EEEEEE;" points="345.989,455.911 339.74,455.888 339.887,460.364 346.137,460.387  "/>   <polygon style="fill:#EEEEEE;" points="359.331,455.961 353.081,455.938 353.229,460.414 359.478,460.438  "/>   <polygon style="fill:#EEEEEE;" points="372.673,456.011 366.423,455.987 366.571,460.463 372.82,460.487  "/>   <polygon style="fill:#EEEEEE;" points="-91.962,468.23 -85.712,468.253 -85.86,463.777 -92.109,463.753  "/>   <polygon style="fill:#EEEEEE;" points="-78.62,468.28 -72.37,468.303 -72.518,463.826 -78.768,463.804  "/>   <polygon style="fill:#EEEEEE;" points="-65.278,468.329 -59.028,468.353 -59.176,463.877 -65.426,463.853  "/>   <polygon style="fill:#EEEEEE;" points="-51.936,468.379 -45.686,468.402 -45.834,463.926 -52.084,463.903  "/>   <polygon style="fill:#EEEEEE;" points="-38.594,468.428 -32.345,468.452 -32.492,463.975 -38.742,463.952  "/>   <polygon style="fill:#EEEEEE;" points="-25.252,468.478 -19.003,468.501 -19.151,464.025 -25.4,464.002  "/>   <polygon style="fill:#EEEEEE;" points="-11.911,468.528 -5.661,468.551 -5.809,464.075 -12.058,464.052  "/>   <polygon style="fill:#EEEEEE;" points="1.431,468.577 7.68,468.601 7.533,464.124 1.283,464.101  "/>   <polygon style="fill:#EEEEEE;" points="14.773,468.627 21.022,468.65 20.874,464.174 14.625,464.15  "/>   <polygon style="fill:#EEEEEE;" points="31.396,468.689 37.645,468.712 37.497,464.236 31.248,464.213  "/>   <polygon style="fill:#EEEEEE;" points="44.737,468.738 50.987,468.762 50.839,464.285 44.59,464.262  "/>   <polygon style="fill:#EEEEEE;" points="58.079,468.788 64.328,468.811 64.181,464.335 57.932,464.311  "/>   <polygon style="fill:#EEEEEE;" points="71.421,468.838 77.67,468.861 77.522,464.385 71.274,464.362  "/>   <polygon style="fill:#EEEEEE;" points="84.762,468.887 91.012,468.911 90.864,464.434 84.615,464.411  "/>   <polygon style="fill:#EEEEEE;" points="98.104,468.936 104.354,468.96 104.206,464.484 97.956,464.46  "/>   <polygon style="fill:#EEEEEE;" points="111.446,468.986 117.696,469.009 117.548,464.533 111.298,464.51  "/>   <polygon style="fill:#EEEEEE;" points="124.788,469.036 131.037,469.06 130.89,464.583 124.64,464.56  "/>   <polygon style="fill:#EEEEEE;" points="138.13,469.086 144.379,469.109 144.232,464.633 137.982,464.609  "/>   <polygon style="fill:#EEEEEE;" points="153.806,469.144 160.056,469.167 159.908,464.691 153.659,464.668  "/>   <polygon style="fill:#EEEEEE;" points="167.148,469.193 173.398,469.217 173.25,464.74 167.001,464.717  "/>   <polygon style="fill:#EEEEEE;" points="180.49,469.243 186.74,469.266 186.592,464.79 180.342,464.767  "/>   <polygon style="fill:#EEEEEE;" points="193.832,469.293 200.082,469.316 199.934,464.84 193.684,464.817  "/>   <polygon style="fill:#EEEEEE;" points="207.174,469.342 213.423,469.366 213.276,464.889 207.026,464.866  "/>   <polygon style="fill:#EEEEEE;" points="220.516,469.392 226.764,469.415 226.617,464.939 220.368,464.915  "/>   <polygon style="fill:#EEEEEE;" points="233.857,469.442 240.106,469.464 239.959,464.988 233.71,464.966  "/>   <polygon style="fill:#EEEEEE;" points="247.199,469.491 253.448,469.515 253.3,465.038 247.051,465.015  "/>   <polygon style="fill:#EEEEEE;" points="260.541,469.541 266.79,469.564 266.642,465.088 260.393,465.064  "/>   <polygon style="fill:#EEEEEE;" points="277.164,469.603 283.413,469.626 283.265,465.149 277.016,465.127  "/>   <polygon style="fill:#EEEEEE;" points="290.506,469.652 296.755,469.676 296.607,465.199 290.358,465.176  "/>   <polygon style="fill:#EEEEEE;" points="303.847,469.702 310.096,469.725 309.948,465.249 303.7,465.225  "/>   <polygon style="fill:#EEEEEE;" points="317.189,469.751 323.438,469.774 323.29,465.298 317.042,465.275  "/>   <polygon style="fill:#EEEEEE;" points="330.53,469.801 336.78,469.824 336.632,465.348 330.383,465.325  "/>   <polygon style="fill:#EEEEEE;" points="343.872,469.851 350.122,469.874 349.974,465.398 343.724,465.374  "/>   <polygon style="fill:#EEEEEE;" points="357.214,469.9 363.464,469.923 363.316,465.447 357.066,465.424  "/>   <polygon style="fill:#EEEEEE;" points="370.556,469.949 376.805,469.973 376.658,465.496 370.408,465.473  "/>   <polygon style="fill:#EEEEEE;" points="383.898,470 390.147,470.023 390,465.546 383.75,465.523  "/>   <polygon style="fill:#EEEEEE;" points="-108.695,476.667 -102.446,476.689 -102.593,472.213 -108.843,472.19  "/>   <polygon style="fill:#EEEEEE;" points="-89.252,472.263 -95.501,472.24 -95.353,476.716 -89.104,476.739  "/>   <polygon style="fill:#EEEEEE;" points="-75.91,472.313 -82.159,472.289 -82.012,476.765 -75.762,476.789  "/>   <polygon style="fill:#EEEEEE;" points="-62.568,472.362 -68.818,472.339 -68.67,476.815 -62.421,476.838  "/>   <polygon style="fill:#EEEEEE;" points="-49.227,472.411 -55.476,472.389 -55.328,476.865 -49.079,476.888  "/>   <polygon style="fill:#EEEEEE;" points="-35.885,472.462 -42.134,472.438 -41.986,476.914 -35.737,476.938  "/>   <polygon style="fill:#EEEEEE;" points="-22.543,472.511 -28.792,472.488 -28.645,476.964 -22.395,476.987  "/>   <polygon style="fill:#EEEEEE;" points="-9.201,472.56 -15.45,472.537 -15.303,477.013 -9.053,477.037  "/>   <polygon style="fill:#EEEEEE;" points="4.141,472.61 -2.108,472.587 -1.961,477.064 4.289,477.087  "/>   <polygon style="fill:#EEEEEE;" points="20.763,472.672 14.514,472.649 14.661,477.125 20.911,477.148  "/>   <polygon style="fill:#EEEEEE;" points="34.105,472.721 27.855,472.698 28.003,477.174 34.253,477.197  "/>   <polygon style="fill:#EEEEEE;" points="47.447,472.772 41.197,472.748 41.345,477.224 47.595,477.248  "/>   <polygon style="fill:#EEEEEE;" points="60.789,472.821 54.539,472.798 54.687,477.274 60.937,477.297  "/>   <polygon style="fill:#EEEEEE;" points="74.131,472.87 67.881,472.847 68.029,477.323 74.279,477.347  "/>   <polygon style="fill:#EEEEEE;" points="87.473,472.92 81.223,472.897 81.371,477.373 87.62,477.396  "/>   <polygon style="fill:#EEEEEE;" points="100.815,472.97 94.565,472.947 94.713,477.423 100.962,477.446  "/>   <polygon style="fill:#EEEEEE;" points="114.156,473.019 107.907,472.996 108.055,477.472 114.303,477.496  "/>   <polygon style="fill:#EEEEEE;" points="127.497,473.069 121.249,473.045 121.396,477.522 127.645,477.545  "/>   <polygon style="fill:#EEEEEE;" points="143.175,473.127 136.925,473.104 137.073,477.58 143.322,477.603  "/>   <polygon style="fill:#EEEEEE;" points="156.516,473.176 150.267,473.154 150.415,477.63 156.664,477.653  "/>   <polygon style="fill:#EEEEEE;" points="169.858,473.227 163.609,473.203 163.756,477.679 170.006,477.703  "/>   <polygon style="fill:#EEEEEE;" points="183.2,473.276 176.951,473.253 177.098,477.729 183.348,477.752  "/>   <polygon style="fill:#EEEEEE;" points="196.542,473.325 190.292,473.302 190.44,477.778 196.689,477.802  "/>   <polygon style="fill:#EEEEEE;" points="209.883,473.375 203.634,473.352 203.782,477.829 210.031,477.851  "/>   <polygon style="fill:#EEEEEE;" points="223.225,473.425 216.976,473.402 217.124,477.878 223.373,477.901  "/>   <polygon style="fill:#EEEEEE;" points="236.567,473.474 230.318,473.451 230.465,477.927 236.715,477.951  "/>   <polygon style="fill:#EEEEEE;" points="249.909,473.524 243.66,473.5 243.807,477.977 250.057,478  "/>   <polygon style="fill:#EEEEEE;" points="266.531,473.586 260.282,473.563 260.43,478.039 266.679,478.062  "/>   <polygon style="fill:#EEEEEE;" points="279.873,473.635 273.624,473.612 273.771,478.088 280.021,478.112  "/>   <polygon style="fill:#EEEEEE;" points="293.215,473.685 286.965,473.661 287.113,478.138 293.363,478.161  "/>   <polygon style="fill:#EEEEEE;" points="306.557,473.734 300.307,473.712 300.455,478.188 306.705,478.211  "/>   <polygon style="fill:#EEEEEE;" points="319.899,473.784 313.649,473.761 313.797,478.237 320.047,478.261  "/>   <polygon style="fill:#EEEEEE;" points="333.241,473.834 326.991,473.81 327.139,478.287 333.389,478.31  "/>   <polygon style="fill:#EEEEEE;" points="346.583,473.883 340.333,473.86 340.481,478.336 346.73,478.359  "/>   <polygon style="fill:#EEEEEE;" points="359.924,473.933 353.675,473.91 353.823,478.386 360.071,478.41  "/>   <polygon style="fill:#EEEEEE;" points="373.265,473.983 367.017,473.959 367.164,478.436 373.413,478.459  "/>   <polygon style="fill:#EEEEEE;" points="-91.395,485.4 -85.145,485.422 -85.293,480.946 -91.543,480.923  "/>   <polygon style="fill:#EEEEEE;" points="-78.053,485.449 -71.803,485.472 -71.951,480.996 -78.201,480.973  "/>   <polygon style="fill:#EEEEEE;" points="-64.711,485.498 -58.461,485.522 -58.609,481.045 -64.859,481.022  "/>   <polygon style="fill:#EEEEEE;" points="-51.369,485.548 -45.12,485.571 -45.267,481.095 -51.517,481.071  "/>   <polygon style="fill:#EEEEEE;" points="-38.027,485.598 -31.779,485.62 -31.926,481.144 -38.175,481.122  "/>   <polygon style="fill:#EEEEEE;" points="-24.686,485.647 -18.437,485.671 -18.585,481.194 -24.833,481.171  "/>   <polygon style="fill:#EEEEEE;" points="-11.345,485.697 -5.095,485.72 -5.243,481.244 -11.492,481.22  "/>   <polygon style="fill:#EEEEEE;" points="1.997,485.746 8.247,485.769 8.099,481.293 1.85,481.27  "/>   <polygon style="fill:#EEEEEE;" points="15.339,485.796 21.589,485.819 21.441,481.343 15.192,481.32  "/>   <polygon style="fill:#EEEEEE;" points="31.962,485.858 38.212,485.881 38.064,481.405 31.814,481.381  "/>   <polygon style="fill:#EEEEEE;" points="45.304,485.907 51.553,485.93 51.406,481.454 45.156,481.431  "/>   <polygon style="fill:#EEEEEE;" points="58.646,485.957 64.895,485.98 64.747,481.504 58.498,481.481  "/>   <polygon style="fill:#EEEEEE;" points="71.987,486.007 78.237,486.03 78.089,481.554 71.84,481.53  "/>   <polygon style="fill:#EEEEEE;" points="85.329,486.056 91.579,486.079 91.431,481.603 85.181,481.58  "/>   <polygon style="fill:#EEEEEE;" points="98.671,486.105 104.92,486.129 104.773,481.653 98.523,481.629  "/>   <polygon style="fill:#EEEEEE;" points="112.013,486.156 118.262,486.179 118.115,481.702 111.865,481.679  "/>   <polygon style="fill:#EEEEEE;" points="125.355,486.205 131.604,486.228 131.456,481.752 125.207,481.729  "/>   <polygon style="fill:#EEEEEE;" points="138.697,486.254 144.946,486.278 144.798,481.802 138.549,481.778  "/>   <polygon style="fill:#EEEEEE;" points="154.373,486.313 160.623,486.336 160.475,481.86 154.225,481.836  "/>   <polygon style="fill:#EEEEEE;" points="167.715,486.363 173.965,486.385 173.817,481.909 167.567,481.887  "/>   <polygon style="fill:#EEEEEE;" points="181.057,486.412 187.307,486.436 187.159,481.959 180.909,481.936  "/>   <polygon style="fill:#EEEEEE;" points="194.399,486.462 200.648,486.485 200.501,482.009 194.251,481.985  "/>   <polygon style="fill:#EEEEEE;" points="207.741,486.511 213.989,486.534 213.842,482.058 207.593,482.035  "/>   <polygon style="fill:#EEEEEE;" points="221.082,486.561 227.331,486.584 227.183,482.108 220.935,482.085  "/>   <polygon style="fill:#EEEEEE;" points="234.424,486.611 240.673,486.634 240.525,482.158 234.276,482.135  "/>   <polygon style="fill:#EEEEEE;" points="247.765,486.66 254.015,486.683 253.867,482.207 247.618,482.184  "/>   <polygon style="fill:#EEEEEE;" points="261.107,486.709 267.357,486.733 267.209,482.257 260.96,482.233  "/>   <polygon style="fill:#EEEEEE;" points="277.73,486.772 283.98,486.795 283.832,482.319 277.583,482.295  "/>   <polygon style="fill:#EEEEEE;" points="291.072,486.821 297.321,486.844 297.173,482.368 290.924,482.345  "/>   <polygon style="fill:#EEEEEE;" points="304.414,486.87 310.663,486.894 310.515,482.418 304.266,482.394  "/>   <polygon style="fill:#EEEEEE;" points="317.755,486.921 324.005,486.943 323.857,482.467 317.608,482.445  "/>   <polygon style="fill:#EEEEEE;" points="331.097,486.97 337.346,486.993 337.199,482.517 330.949,482.494  "/>   <polygon style="fill:#EEEEEE;" points="344.439,487.019 350.688,487.043 350.541,482.567 344.291,482.543  "/>   <polygon style="fill:#EEEEEE;" points="357.781,487.069 364.03,487.092 363.883,482.616 357.633,482.593  "/>   <polygon style="fill:#EEEEEE;" points="371.123,487.119 377.372,487.142 377.224,482.665 370.975,482.643  "/>   <polygon style="fill:#EEEEEE;" points="384.464,487.169 390.714,487.192 390.566,482.716 384.317,482.692  "/>   <polygon style="fill:#EEEEEE;" points="-108.128,493.836 -101.879,493.859 -102.027,489.383 -108.276,489.359  "/>   <polygon style="fill:#EEEEEE;" points="-94.787,493.885 -88.538,493.908 -88.685,489.432 -94.934,489.409  "/>   <polygon style="fill:#EEEEEE;" points="-81.445,493.934 -75.196,493.958 -75.343,489.481 -81.593,489.458  "/>   <polygon style="fill:#EEEEEE;" points="-68.103,493.985 -61.854,494.007 -62.002,489.531 -68.251,489.508  "/>   <polygon style="fill:#EEEEEE;" points="-54.761,494.034 -48.512,494.057 -48.66,489.581 -54.909,489.558  "/>   <polygon style="fill:#EEEEEE;" points="-41.42,494.083 -35.17,494.107 -35.318,489.631 -41.567,489.607  "/>   <polygon style="fill:#EEEEEE;" points="-28.078,494.133 -21.828,494.156 -21.976,489.68 -28.226,489.656  "/>   <polygon style="fill:#EEEEEE;" points="-14.736,494.183 -8.486,494.206 -8.634,489.729 -14.884,489.707  "/>   <polygon style="fill:#EEEEEE;" points="-1.394,494.232 4.855,494.256 4.708,489.78 -1.542,489.756  "/>   <polygon style="fill:#EEEEEE;" points="15.228,494.294 21.478,494.317 21.33,489.841 15.08,489.817  "/>   <polygon style="fill:#EEEEEE;" points="28.57,494.344 34.82,494.367 34.672,489.891 28.422,489.868  "/>   <polygon style="fill:#EEEEEE;" points="41.912,494.393 48.162,494.417 48.014,489.941 41.764,489.917  "/>   <polygon style="fill:#EEEEEE;" points="55.254,494.443 61.503,494.466 61.356,489.99 55.106,489.966  "/>   <polygon style="fill:#EEEEEE;" points="68.596,494.492 74.845,494.515 74.698,490.039 68.448,490.016  "/>   <polygon style="fill:#EEEEEE;" points="81.938,494.542 88.187,494.566 88.039,490.089 81.79,490.066  "/>   <polygon style="fill:#EEEEEE;" points="95.28,494.592 101.528,494.615 101.381,490.139 95.132,490.116  "/>   <polygon style="fill:#EEEEEE;" points="108.621,494.641 114.87,494.665 114.722,490.188 108.474,490.165  "/>   <polygon style="fill:#EEEEEE;" points="121.962,494.69 128.212,494.714 128.064,490.238 121.815,490.214  "/>   <polygon style="fill:#EEEEEE;" points="137.64,494.749 143.888,494.772 143.741,490.296 137.492,490.273  "/>   <polygon style="fill:#EEEEEE;" points="150.981,494.799 157.23,494.822 157.083,490.346 150.834,490.323  "/>   <polygon style="fill:#EEEEEE;" points="164.323,494.848 170.572,494.872 170.424,490.396 164.175,490.372  "/>   <polygon style="fill:#EEEEEE;" points="177.664,494.898 183.914,494.921 183.767,490.445 177.517,490.422  "/>   <polygon style="fill:#EEEEEE;" points="191.006,494.948 197.256,494.97 197.108,490.494 190.859,490.472  "/>   <polygon style="fill:#EEEEEE;" points="204.348,494.997 210.598,495.021 210.45,490.545 204.201,490.521  "/>   <polygon style="fill:#EEEEEE;" points="217.69,495.047 223.94,495.07 223.792,490.594 217.542,490.571  "/>   <polygon style="fill:#EEEEEE;" points="231.032,495.096 237.282,495.12 237.134,490.643 230.884,490.62  "/>   <polygon style="fill:#EEEEEE;" points="244.374,495.146 250.623,495.169 250.476,490.693 244.226,490.67  "/>   <polygon style="fill:#EEEEEE;" points="260.996,495.208 267.246,495.231 267.098,490.755 260.848,490.731  "/>   <polygon style="fill:#EEEEEE;" points="274.338,495.257 280.588,495.28 280.44,490.804 274.19,490.781  "/>   <polygon style="fill:#EEEEEE;" points="287.68,495.307 293.929,495.33 293.782,490.854 287.532,490.831  "/>   <polygon style="fill:#EEEEEE;" points="301.022,495.357 307.271,495.38 307.124,490.904 300.874,490.881  "/>   <polygon style="fill:#EEEEEE;" points="314.364,495.406 320.613,495.43 320.465,490.953 314.216,490.93  "/>   <polygon style="fill:#EEEEEE;" points="327.706,495.455 333.955,495.479 333.807,491.003 327.558,490.979  "/>   <polygon style="fill:#EEEEEE;" points="341.047,495.506 347.296,495.529 347.149,491.052 340.9,491.03  "/>   <polygon style="fill:#EEEEEE;" points="354.389,495.555 360.638,495.579 360.49,491.102 354.242,491.079  "/>   <polygon style="fill:#EEEEEE;" points="367.73,495.605 373.98,495.628 373.832,491.152 367.583,491.128  "/>  </g>  <g>   <polygon style="fill:#E2ECFE;" points="246.88,514.144 253.129,514.168 252.981,509.692 246.732,509.668  "/>   <polygon style="fill:#E2ECFE;" points="260.221,514.194 266.471,514.217 266.323,509.741 260.074,509.717  "/>   <polygon style="fill:#E2ECFE;" points="273.563,514.243 279.812,514.266 279.665,509.79 273.416,509.767  "/>   <polygon style="fill:#E2ECFE;" points="286.905,514.293 293.154,514.316 293.006,509.84 286.757,509.817  "/>   <polygon style="fill:#E2ECFE;" points="300.246,514.343 306.496,514.366 306.348,509.89 300.099,509.867  "/>   <polygon style="fill:#E2ECFE;" points="313.588,514.392 319.838,514.415 319.69,509.939 313.44,509.916  "/>   <polygon style="fill:#E2ECFE;" points="326.93,514.441 333.18,514.465 333.032,509.989 326.782,509.965  "/>   <polygon style="fill:#E2ECFE;" points="340.272,514.492 346.522,514.515 346.374,510.038 340.124,510.016  "/>   <polygon style="fill:#E2ECFE;" points="353.614,514.541 359.863,514.565 359.715,510.088 353.466,510.065  "/>   <polygon style="fill:#E2ECFE;" points="370.237,514.603 376.485,514.626 376.338,510.15 370.089,510.126  "/>   <polygon style="fill:#E2ECFE;" points="383.578,514.653 389.827,514.676 389.68,510.2 383.43,510.177  "/>   <polygon style="fill:#E2ECFE;" points="396.92,514.702 403.169,514.725 403.021,510.249 396.772,510.226  "/>   <polygon style="fill:#E2ECFE;" points="410.262,514.751 416.511,514.775 416.363,510.299 410.114,510.275  "/>   <polygon style="fill:#E2ECFE;" points="423.603,514.801 429.853,514.824 429.705,510.348 423.456,510.325  "/>   <polygon style="fill:#E2ECFE;" points="436.945,514.851 443.195,514.875 443.047,510.398 436.797,510.375  "/>   <polygon style="fill:#E2ECFE;" points="450.287,514.901 456.537,514.924 456.389,510.448 450.139,510.424  "/>   <polygon style="fill:#E2ECFE;" points="463.629,514.95 469.878,514.973 469.731,510.497 463.481,510.474  "/>   <polygon style="fill:#E2ECFE;" points="476.971,515 483.22,515.023 483.072,510.546 476.823,510.523  "/>   <polygon style="fill:#E2ECFE;" points="492.648,515.058 498.897,515.081 498.749,510.605 492.5,510.582  "/>   <polygon style="fill:#E2ECFE;" points="505.99,515.108 512.239,515.131 512.091,510.655 505.842,510.632  "/>   <polygon style="fill:#E2ECFE;" points="519.331,515.157 525.58,515.181 525.432,510.704 519.184,510.681  "/>   <polygon style="fill:#E2ECFE;" points="532.673,515.206 538.922,515.23 538.774,510.754 532.525,510.73  "/>   <polygon style="fill:#E2ECFE;" points="546.014,515.257 552.264,515.279 552.116,510.803 545.867,510.78  "/>   <polygon style="fill:#E2ECFE;" points="559.356,515.306 565.606,515.33 565.458,510.853 559.208,510.83  "/>   <polygon style="fill:#E2ECFE;" points="572.698,515.356 578.948,515.379 578.8,510.903 572.55,510.879  "/>   <polygon style="fill:#E2ECFE;" points="586.04,515.405 592.289,515.428 592.142,510.952 585.892,510.929  "/>   <polygon style="fill:#E2ECFE;" points="599.382,515.455 605.631,515.478 605.484,511.001 599.234,510.979  "/>   <polygon style="fill:#E2ECFE;" points="616.005,515.516 622.253,515.54 622.106,511.064 615.857,511.04  "/>   <polygon style="fill:#E2ECFE;" points="629.346,515.566 635.595,515.589 635.448,511.113 629.198,511.09  "/>   <polygon style="fill:#E2ECFE;" points="642.688,515.616 648.937,515.639 648.789,511.163 642.54,511.14  "/>   <polygon style="fill:#E2ECFE;" points="656.03,515.666 662.279,515.689 662.131,511.213 655.882,511.189  "/>   <polygon style="fill:#E2ECFE;" points="669.371,515.715 675.621,515.738 675.473,511.262 669.224,511.239  "/>   <polygon style="fill:#E2ECFE;" points="682.713,515.764 688.963,515.788 688.815,511.311 682.566,511.288  "/>   <polygon style="fill:#E2ECFE;" points="696.055,515.815 702.305,515.838 702.157,511.361 695.907,511.338  "/>   <polygon style="fill:#E2ECFE;" points="709.397,515.864 715.647,515.887 715.499,511.411 709.249,511.388  "/>   <polygon style="fill:#E2ECFE;" points="722.591,511.437 722.739,515.913 728.988,515.937 728.841,511.461  "/>   <polygon style="fill:#E2ECFE;" points="230.145,522.58 236.395,522.604 236.247,518.128 229.998,518.104  "/>   <polygon style="fill:#E2ECFE;" points="249.589,518.177 243.339,518.154 243.487,522.63 249.737,522.653  "/>   <polygon style="fill:#E2ECFE;" points="262.931,518.227 256.681,518.204 256.829,522.68 263.079,522.703  "/>   <polygon style="fill:#E2ECFE;" points="276.273,518.277 270.023,518.253 270.171,522.729 276.421,522.753  "/>   <polygon style="fill:#E2ECFE;" points="289.615,518.326 283.365,518.303 283.513,522.779 289.762,522.802  "/>   <polygon style="fill:#E2ECFE;" points="302.957,518.375 296.707,518.352 296.855,522.828 303.105,522.852  "/>   <polygon style="fill:#E2ECFE;" points="316.299,518.425 310.049,518.402 310.197,522.879 316.446,522.901  "/>   <polygon style="fill:#E2ECFE;" points="329.64,518.475 323.391,518.452 323.539,522.928 329.787,522.951  "/>   <polygon style="fill:#E2ECFE;" points="342.981,518.524 336.733,518.501 336.88,522.977 343.129,523.001  "/>   <polygon style="fill:#E2ECFE;" points="359.604,518.587 353.355,518.563 353.503,523.039 359.752,523.063  "/>   <polygon style="fill:#E2ECFE;" points="372.946,518.636 366.697,518.613 366.844,523.089 373.094,523.112  "/>   <polygon style="fill:#E2ECFE;" points="386.288,518.685 380.039,518.662 380.186,523.138 386.436,523.162  "/>   <polygon style="fill:#E2ECFE;" points="399.63,518.735 393.381,518.712 393.528,523.188 399.778,523.211  "/>   <polygon style="fill:#E2ECFE;" points="412.972,518.785 406.722,518.762 406.87,523.238 413.119,523.261  "/>   <polygon style="fill:#E2ECFE;" points="426.313,518.834 420.064,518.811 420.212,523.287 426.461,523.311  "/>   <polygon style="fill:#E2ECFE;" points="439.655,518.884 433.406,518.86 433.553,523.337 439.803,523.36  "/>   <polygon style="fill:#E2ECFE;" points="452.997,518.933 446.747,518.91 446.895,523.387 453.144,523.409  "/>   <polygon style="fill:#E2ECFE;" points="466.339,518.983 460.089,518.96 460.237,523.436 466.486,523.46  "/>   <polygon style="fill:#E2ECFE;" points="482.015,519.042 475.766,519.018 475.913,523.495 482.163,523.518  "/>   <polygon style="fill:#E2ECFE;" points="495.357,519.091 489.108,519.068 489.255,523.544 495.505,523.567  "/>   <polygon style="fill:#E2ECFE;" points="508.699,519.14 502.449,519.117 502.597,523.593 508.847,523.617  "/>   <polygon style="fill:#E2ECFE;" points="522.041,519.19 515.791,519.167 515.939,523.644 522.189,523.666  "/>   <polygon style="fill:#E2ECFE;" points="535.383,519.24 529.133,519.217 529.281,523.693 535.531,523.716  "/>   <polygon style="fill:#E2ECFE;" points="548.725,519.289 542.475,519.266 542.623,523.742 548.872,523.766  "/>   <polygon style="fill:#E2ECFE;" points="562.067,519.339 555.817,519.315 555.965,523.792 562.214,523.815  "/>   <polygon style="fill:#E2ECFE;" points="575.408,519.388 569.159,519.366 569.307,523.842 575.555,523.865  "/>   <polygon style="fill:#E2ECFE;" points="588.749,519.438 582.501,519.415 582.648,523.891 588.897,523.915  "/>   <polygon style="fill:#E2ECFE;" points="605.372,519.5 599.123,519.476 599.271,523.953 605.52,523.976  "/>   <polygon style="fill:#E2ECFE;" points="618.714,519.55 612.465,519.527 612.613,524.003 618.862,524.026  "/>   <polygon style="fill:#E2ECFE;" points="632.056,519.599 625.807,519.576 625.954,524.052 632.204,524.076  "/>   <polygon style="fill:#E2ECFE;" points="645.398,519.649 639.149,519.625 639.296,524.102 645.546,524.125  "/>   <polygon style="fill:#E2ECFE;" points="658.74,519.698 652.49,519.675 652.638,524.151 658.887,524.174  "/>   <polygon style="fill:#E2ECFE;" points="672.081,519.748 665.832,519.725 665.98,524.201 672.229,524.224  "/>   <polygon style="fill:#E2ECFE;" points="685.423,519.798 679.174,519.774 679.321,524.251 685.571,524.274  "/>   <polygon style="fill:#E2ECFE;" points="698.765,519.847 692.515,519.824 692.663,524.3 698.912,524.323  "/>   <polygon style="fill:#E2ECFE;" points="712.107,519.897 705.857,519.873 706.005,524.349 712.254,524.373  "/>   <polygon style="fill:#E2ECFE;" points="247.446,531.313 253.696,531.337 253.548,526.86 247.298,526.837  "/>   <polygon style="fill:#E2ECFE;" points="260.788,531.363 267.037,531.386 266.89,526.91 260.64,526.886  "/>   <polygon style="fill:#E2ECFE;" points="274.13,531.413 280.379,531.435 280.231,526.959 273.982,526.937  "/>   <polygon style="fill:#E2ECFE;" points="287.471,531.462 293.721,531.486 293.573,527.009 287.324,526.986  "/>   <polygon style="fill:#E2ECFE;" points="300.813,531.512 307.062,531.535 306.915,527.059 300.665,527.035  "/>   <polygon style="fill:#E2ECFE;" points="314.155,531.561 320.404,531.584 320.257,527.108 314.007,527.085  "/>   <polygon style="fill:#E2ECFE;" points="327.497,531.611 333.746,531.634 333.599,527.158 327.349,527.135  "/>   <polygon style="fill:#E2ECFE;" points="340.839,531.661 347.088,531.684 346.94,527.208 340.691,527.184  "/>   <polygon style="fill:#E2ECFE;" points="354.181,531.71 360.43,531.733 360.282,527.257 354.033,527.234  "/>   <polygon style="fill:#E2ECFE;" points="370.803,531.772 377.052,531.795 376.904,527.319 370.655,527.296  "/>   <polygon style="fill:#E2ECFE;" points="384.144,531.822 390.394,531.845 390.246,527.369 383.996,527.345  "/>   <polygon style="fill:#E2ECFE;" points="397.486,531.871 403.736,531.894 403.588,527.418 397.338,527.395  "/>   <polygon style="fill:#E2ECFE;" points="410.828,531.92 417.078,531.944 416.93,527.467 410.68,527.444  "/>   <polygon style="fill:#E2ECFE;" points="424.17,531.971 430.42,531.994 430.272,527.518 424.022,527.494  "/>   <polygon style="fill:#E2ECFE;" points="437.512,532.02 443.762,532.043 443.614,527.567 437.364,527.544  "/>   <polygon style="fill:#E2ECFE;" points="450.854,532.069 457.103,532.093 456.956,527.617 450.706,527.593  "/>   <polygon style="fill:#E2ECFE;" points="464.196,532.119 470.444,532.142 470.297,527.666 464.048,527.643  "/>   <polygon style="fill:#E2ECFE;" points="477.538,532.169 483.786,532.193 483.639,527.716 477.39,527.693  "/>   <polygon style="fill:#E2ECFE;" points="493.214,532.227 499.464,532.251 499.316,527.775 493.066,527.751  "/>   <polygon style="fill:#E2ECFE;" points="506.556,532.277 512.805,532.3 512.658,527.824 506.408,527.8  "/>   <polygon style="fill:#E2ECFE;" points="519.898,532.326 526.147,532.349 525.999,527.873 519.75,527.85  "/>   <polygon style="fill:#E2ECFE;" points="533.239,532.376 539.489,532.399 539.341,527.923 533.092,527.9  "/>   <polygon style="fill:#E2ECFE;" points="546.581,532.426 552.831,532.449 552.683,527.973 546.433,527.949  "/>   <polygon style="fill:#E2ECFE;" points="559.923,532.475 566.172,532.498 566.024,528.022 559.775,527.999  "/>   <polygon style="fill:#E2ECFE;" points="573.265,532.524 579.514,532.548 579.367,528.072 573.117,528.048  "/>   <polygon style="fill:#E2ECFE;" points="586.606,532.575 592.856,532.597 592.708,528.121 586.459,528.098  "/>   <polygon style="fill:#E2ECFE;" points="599.948,532.624 606.198,532.648 606.05,528.171 599.801,528.148  "/>   <polygon style="fill:#E2ECFE;" points="616.571,532.685 622.82,532.709 622.672,528.233 616.424,528.209  "/>   <polygon style="fill:#E2ECFE;" points="629.912,532.736 636.162,532.758 636.014,528.282 629.765,528.259  "/>   <polygon style="fill:#E2ECFE;" points="643.254,532.785 649.504,532.808 649.356,528.332 643.106,528.309  "/>   <polygon style="fill:#E2ECFE;" points="656.596,532.834 662.846,532.858 662.698,528.382 656.448,528.358  "/>   <polygon style="fill:#E2ECFE;" points="669.938,532.884 676.188,532.907 676.04,528.431 669.79,528.408  "/>   <polygon style="fill:#E2ECFE;" points="683.28,532.934 689.53,532.957 689.382,528.481 683.132,528.458  "/>   <polygon style="fill:#E2ECFE;" points="696.622,532.983 702.871,533.007 702.724,528.531 696.474,528.507  "/>   <polygon style="fill:#E2ECFE;" points="709.964,533.033 716.213,533.056 716.065,528.58 709.816,528.557  "/>   <polygon style="fill:#E2ECFE;" points="723.306,533.082 729.554,533.106 729.406,528.629 723.158,528.606  "/>   <polygon style="fill:#E2ECFE;" points="230.712,539.749 236.962,539.773 236.814,535.296 230.564,535.273  "/>   <polygon style="fill:#E2ECFE;" points="250.156,535.346 243.906,535.323 244.054,539.8 250.304,539.822  "/>   <polygon style="fill:#E2ECFE;" points="263.498,535.396 257.248,535.373 257.396,539.849 263.646,539.872  "/>   <polygon style="fill:#E2ECFE;" points="276.84,535.445 270.59,535.422 270.738,539.898 276.987,539.922  "/>   <polygon style="fill:#E2ECFE;" points="290.181,535.495 283.932,535.471 284.08,539.948 290.329,539.971  "/>   <polygon style="fill:#E2ECFE;" points="303.523,535.544 297.274,535.522 297.422,539.998 303.671,540.021  "/>   <polygon style="fill:#E2ECFE;" points="316.865,535.595 310.616,535.571 310.763,540.047 317.012,540.071  "/>   <polygon style="fill:#E2ECFE;" points="330.206,535.644 323.958,535.62 324.105,540.097 330.354,540.12  "/>   <polygon style="fill:#E2ECFE;" points="343.548,535.693 337.299,535.67 337.446,540.146 343.696,540.169  "/>   <polygon style="fill:#E2ECFE;" points="360.171,535.755 353.921,535.732 354.069,540.208 360.319,540.232  "/>   <polygon style="fill:#E2ECFE;" points="373.513,535.805 367.263,535.781 367.411,540.258 373.661,540.281  "/>   <polygon style="fill:#E2ECFE;" points="386.855,535.854 380.605,535.831 380.753,540.307 387.003,540.33  "/>   <polygon style="fill:#E2ECFE;" points="400.197,535.904 393.947,535.881 394.095,540.357 400.344,540.38  "/>   <polygon style="fill:#E2ECFE;" points="413.538,535.954 407.289,535.93 407.437,540.407 413.686,540.43  "/>   <polygon style="fill:#E2ECFE;" points="426.879,536.003 420.631,535.98 420.778,540.456 427.027,540.479  "/>   <polygon style="fill:#E2ECFE;" points="440.222,536.053 433.972,536.029 434.12,540.506 440.369,540.529  "/>   <polygon style="fill:#E2ECFE;" points="453.563,536.103 447.314,536.08 447.462,540.556 453.711,540.579  "/>   <polygon style="fill:#E2ECFE;" points="466.905,536.152 460.656,536.129 460.804,540.605 467.053,540.628  "/>   <polygon style="fill:#E2ECFE;" points="482.582,536.211 476.332,536.187 476.48,540.663 482.73,540.687  "/>   <polygon style="fill:#E2ECFE;" points="495.924,536.26 489.674,536.236 489.822,540.713 496.072,540.736  "/>   <polygon style="fill:#E2ECFE;" points="509.266,536.309 503.016,536.286 503.164,540.763 509.413,540.785  "/>   <polygon style="fill:#E2ECFE;" points="522.608,536.36 516.358,536.336 516.506,540.812 522.755,540.836  "/>   <polygon style="fill:#E2ECFE;" points="535.949,536.409 529.7,536.386 529.848,540.862 536.097,540.885  "/>   <polygon style="fill:#E2ECFE;" points="549.291,536.458 543.042,536.435 543.19,540.911 549.439,540.935  "/>   <polygon style="fill:#E2ECFE;" points="562.633,536.508 556.384,536.485 556.532,540.961 562.78,540.984  "/>   <polygon style="fill:#E2ECFE;" points="575.974,536.558 569.726,536.535 569.873,541.011 576.122,541.034  "/>   <polygon style="fill:#E2ECFE;" points="589.316,536.607 583.067,536.584 583.214,541.06 589.464,541.084  "/>   <polygon style="fill:#E2ECFE;" points="605.939,536.669 599.69,536.646 599.837,541.122 606.087,541.145  "/>   <polygon style="fill:#E2ECFE;" points="619.281,536.719 613.031,536.696 613.179,541.172 619.429,541.195  "/>   <polygon style="fill:#E2ECFE;" points="632.623,536.768 626.373,536.745 626.521,541.221 632.771,541.245  "/>   <polygon style="fill:#E2ECFE;" points="645.965,536.818 639.715,536.794 639.863,541.27 646.112,541.294  "/>   <polygon style="fill:#E2ECFE;" points="659.306,536.867 653.057,536.845 653.205,541.321 659.453,541.344  "/>   <polygon style="fill:#E2ECFE;" points="672.648,536.917 666.399,536.894 666.546,541.37 672.795,541.394  "/>   <polygon style="fill:#E2ECFE;" points="685.989,536.967 679.74,536.943 679.888,541.419 686.137,541.443  "/>   <polygon style="fill:#E2ECFE;" points="699.331,537.016 693.082,536.993 693.23,541.469 699.479,541.492  "/>   <polygon style="fill:#E2ECFE;" points="712.673,537.066 706.424,537.043 706.571,541.519 712.821,541.542  "/>   <polygon style="fill:#E2ECFE;" points="248.039,549.285 254.289,549.309 254.141,544.833 247.891,544.809  "/>   <polygon style="fill:#E2ECFE;" points="261.381,549.335 267.63,549.358 267.483,544.882 261.233,544.859  "/>   <polygon style="fill:#E2ECFE;" points="274.723,549.385 280.972,549.408 280.825,544.931 274.575,544.909  "/>   <polygon style="fill:#E2ECFE;" points="288.065,549.435 294.314,549.458 294.167,544.982 287.917,544.958  "/>   <polygon style="fill:#E2ECFE;" points="301.407,549.484 307.655,549.507 307.508,545.031 301.259,545.008  "/>   <polygon style="fill:#E2ECFE;" points="314.748,549.533 320.997,549.557 320.849,545.08 314.601,545.057  "/>   <polygon style="fill:#E2ECFE;" points="328.089,549.583 334.339,549.606 334.191,545.13 327.942,545.107  "/>   <polygon style="fill:#E2ECFE;" points="341.431,549.633 347.681,549.656 347.533,545.18 341.283,545.157  "/>   <polygon style="fill:#E2ECFE;" points="354.773,549.682 361.023,549.706 360.875,545.229 354.626,545.206  "/>   <polygon style="fill:#E2ECFE;" points="371.396,549.745 377.646,549.767 377.498,545.291 371.248,545.268  "/>   <polygon style="fill:#E2ECFE;" points="384.738,549.794 390.987,549.817 390.84,545.341 384.59,545.318  "/>   <polygon style="fill:#E2ECFE;" points="398.08,549.843 404.329,549.867 404.181,545.39 397.932,545.367  "/>   <polygon style="fill:#E2ECFE;" points="411.421,549.893 417.67,549.916 417.523,545.44 411.274,545.416  "/>   <polygon style="fill:#E2ECFE;" points="424.763,549.943 431.012,549.966 430.865,545.49 424.615,545.467  "/>   <polygon style="fill:#E2ECFE;" points="438.105,549.992 444.354,550.016 444.206,545.539 437.957,545.516  "/>   <polygon style="fill:#E2ECFE;" points="451.447,550.042 457.696,550.065 457.548,545.589 451.299,545.565  "/>   <polygon style="fill:#E2ECFE;" points="464.789,550.091 471.038,550.114 470.89,545.638 464.641,545.615  "/>   <polygon style="fill:#E2ECFE;" points="478.13,550.141 484.38,550.164 484.232,545.688 477.983,545.665  "/>   <polygon style="fill:#E2ECFE;" points="493.807,550.2 500.057,550.223 499.909,545.747 493.659,545.723  "/>   <polygon style="fill:#E2ECFE;" points="507.149,550.249 513.399,550.272 513.251,545.796 507.001,545.773  "/>   <polygon style="fill:#E2ECFE;" points="520.491,550.298 526.74,550.322 526.593,545.845 520.343,545.822  "/>   <polygon style="fill:#E2ECFE;" points="533.833,550.348 540.082,550.371 539.935,545.895 533.685,545.871  "/>   <polygon style="fill:#E2ECFE;" points="547.175,550.398 553.423,550.421 553.276,545.945 547.027,545.922  "/>   <polygon style="fill:#E2ECFE;" points="560.516,550.447 566.765,550.471 566.617,545.994 560.369,545.971  "/>   <polygon style="fill:#E2ECFE;" points="573.857,550.497 580.107,550.52 579.959,546.044 573.71,546.02  "/>   <polygon style="fill:#E2ECFE;" points="587.199,550.547 593.449,550.569 593.301,546.093 587.051,546.07  "/>   <polygon style="fill:#E2ECFE;" points="600.541,550.596 606.791,550.62 606.643,546.143 600.393,546.12  "/>   <polygon style="fill:#E2ECFE;" points="617.164,550.658 623.414,550.681 623.266,546.205 617.017,546.181  "/>   <polygon style="fill:#E2ECFE;" points="630.506,550.708 636.755,550.73 636.608,546.254 630.358,546.232  "/>   <polygon style="fill:#E2ECFE;" points="643.848,550.757 650.097,550.781 649.949,546.304 643.7,546.281  "/>   <polygon style="fill:#E2ECFE;" points="657.189,550.807 663.439,550.83 663.291,546.354 657.042,546.33  "/>   <polygon style="fill:#E2ECFE;" points="670.531,550.856 676.78,550.879 676.633,546.403 670.383,546.38  "/>   <polygon style="fill:#E2ECFE;" points="683.873,550.906 690.122,550.929 689.975,546.453 683.725,546.43  "/>   <polygon style="fill:#E2ECFE;" points="697.215,550.956 703.464,550.979 703.316,546.503 697.067,546.48  "/>   <polygon style="fill:#E2ECFE;" points="710.557,551.005 716.806,551.028 716.658,546.552 710.409,546.529  "/>   <polygon style="fill:#E2ECFE;" points="723.898,551.054 730.148,551.078 730,546.602 723.751,546.578  "/>   <polygon style="fill:#E2ECFE;" points="231.306,557.721 237.555,557.745 237.408,553.269 231.158,553.245  "/>   <polygon style="fill:#E2ECFE;" points="250.748,553.318 244.5,553.295 244.648,557.772 250.896,557.794  "/>   <polygon style="fill:#E2ECFE;" points="264.09,553.368 257.842,553.345 257.989,557.821 264.238,557.845  "/>   <polygon style="fill:#E2ECFE;" points="277.432,553.418 271.183,553.394 271.33,557.871 277.58,557.894  "/>   <polygon style="fill:#E2ECFE;" points="290.774,553.467 284.525,553.444 284.672,557.92 290.922,557.943  "/>   <polygon style="fill:#E2ECFE;" points="304.116,553.516 297.866,553.494 298.014,557.97 304.264,557.993  "/>   <polygon style="fill:#E2ECFE;" points="317.458,553.567 311.208,553.543 311.356,558.02 317.606,558.043  "/>   <polygon style="fill:#E2ECFE;" points="330.8,553.616 324.55,553.593 324.698,558.069 330.948,558.092  "/>   <polygon style="fill:#E2ECFE;" points="344.142,553.665 337.892,553.642 338.04,558.118 344.289,558.142  "/>   <polygon style="fill:#E2ECFE;" points="360.764,553.728 354.514,553.704 354.662,558.18 360.912,558.204  "/>   <polygon style="fill:#E2ECFE;" points="374.106,553.777 367.856,553.754 368.004,558.23 374.254,558.253  "/>   <polygon style="fill:#E2ECFE;" points="387.448,553.826 381.198,553.803 381.346,558.279 387.595,558.303  "/>   <polygon style="fill:#E2ECFE;" points="400.789,553.876 394.54,553.853 394.688,558.33 400.937,558.352  "/>   <polygon style="fill:#E2ECFE;" points="414.131,553.926 407.882,553.903 408.03,558.379 414.279,558.402  "/>   <polygon style="fill:#E2ECFE;" points="427.473,553.975 421.224,553.952 421.371,558.428 427.621,558.452  "/>   <polygon style="fill:#E2ECFE;" points="440.815,554.025 434.566,554.001 434.713,558.478 440.962,558.501  "/>   <polygon style="fill:#E2ECFE;" points="454.156,554.075 447.907,554.052 448.055,558.528 454.304,558.551  "/>   <polygon style="fill:#E2ECFE;" points="467.498,554.125 461.249,554.101 461.396,558.577 467.646,558.601  "/>   <polygon style="fill:#E2ECFE;" points="483.175,554.183 476.926,554.159 477.074,558.636 483.322,558.659  "/>   <polygon style="fill:#E2ECFE;" points="496.517,554.232 490.268,554.209 490.416,558.685 496.664,558.708  "/>   <polygon style="fill:#E2ECFE;" points="509.858,554.281 503.609,554.258 503.757,558.734 510.006,558.758  "/>   <polygon style="fill:#E2ECFE;" points="523.2,554.332 516.951,554.308 517.098,558.785 523.348,558.808  "/>   <polygon style="fill:#E2ECFE;" points="536.542,554.381 530.293,554.358 530.44,558.834 536.69,558.857  "/>   <polygon style="fill:#E2ECFE;" points="549.884,554.43 543.635,554.407 543.782,558.883 550.032,558.907  "/>   <polygon style="fill:#E2ECFE;" points="563.226,554.48 556.976,554.457 557.124,558.933 563.374,558.956  "/>   <polygon style="fill:#E2ECFE;" points="576.568,554.53 570.318,554.507 570.466,558.983 576.716,559.006  "/>   <polygon style="fill:#E2ECFE;" points="589.91,554.58 583.66,554.556 583.808,559.032 590.058,559.056  "/>   <polygon style="fill:#E2ECFE;" points="606.532,554.641 600.282,554.618 600.43,559.095 606.68,559.117  "/>   <polygon style="fill:#E2ECFE;" points="619.874,554.691 613.624,554.668 613.772,559.144 620.022,559.167  "/>   <polygon style="fill:#E2ECFE;" points="633.216,554.74 626.966,554.717 627.114,559.193 633.363,559.217  "/>   <polygon style="fill:#E2ECFE;" points="646.558,554.79 640.308,554.766 640.456,559.243 646.705,559.266  "/>   <polygon style="fill:#E2ECFE;" points="659.899,554.839 653.65,554.817 653.798,559.293 660.047,559.315  "/>   <polygon style="fill:#E2ECFE;" points="673.241,554.89 666.992,554.866 667.14,559.342 673.389,559.366  "/>   <polygon style="fill:#E2ECFE;" points="686.583,554.939 680.334,554.916 680.481,559.392 686.73,559.415  "/>   <polygon style="fill:#E2ECFE;" points="699.924,554.988 693.676,554.965 693.823,559.441 700.072,559.464  "/>   <polygon style="fill:#E2ECFE;" points="713.266,555.038 707.017,555.015 707.164,559.491 713.414,559.514  "/>   <polygon style="fill:#E2ECFE;" points="248.606,566.454 254.855,566.478 254.708,562.001 248.458,561.978  "/>   <polygon style="fill:#E2ECFE;" points="261.948,566.504 268.197,566.527 268.049,562.051 261.8,562.027  "/>   <polygon style="fill:#E2ECFE;" points="275.29,566.554 281.539,566.577 281.391,562.101 275.142,562.078  "/>   <polygon style="fill:#E2ECFE;" points="288.631,566.603 294.88,566.627 294.733,562.151 288.484,562.127  "/>   <polygon style="fill:#E2ECFE;" points="301.973,566.653 308.222,566.676 308.074,562.2 301.826,562.176  "/>   <polygon style="fill:#E2ECFE;" points="315.314,566.703 321.564,566.725 321.416,562.249 315.167,562.226  "/>   <polygon style="fill:#E2ECFE;" points="328.656,566.752 334.906,566.776 334.758,562.299 328.508,562.276  "/>   <polygon style="fill:#E2ECFE;" points="341.998,566.802 348.248,566.825 348.1,562.349 341.85,562.326  "/>   <polygon style="fill:#E2ECFE;" points="355.34,566.851 361.589,566.875 361.442,562.398 355.192,562.375  "/>   <polygon style="fill:#E2ECFE;" points="371.963,566.913 378.212,566.937 378.065,562.46 371.815,562.437  "/>   <polygon style="fill:#E2ECFE;" points="385.305,566.963 391.554,566.986 391.406,562.51 385.157,562.486  "/>   <polygon style="fill:#E2ECFE;" points="398.646,567.012 404.895,567.035 404.748,562.559 398.499,562.536  "/>   <polygon style="fill:#E2ECFE;" points="411.988,567.062 418.237,567.085 418.089,562.609 411.84,562.586  "/>   <polygon style="fill:#E2ECFE;" points="425.33,567.112 431.579,567.135 431.431,562.659 425.182,562.636  "/>   <polygon style="fill:#E2ECFE;" points="438.671,567.161 444.921,567.184 444.773,562.708 438.524,562.685  "/>   <polygon style="fill:#E2ECFE;" points="452.013,567.21 458.263,567.234 458.115,562.758 451.866,562.734  "/>   <polygon style="fill:#E2ECFE;" points="465.355,567.261 471.605,567.283 471.457,562.807 465.207,562.785  "/>   <polygon style="fill:#E2ECFE;" points="478.697,567.31 484.947,567.334 484.799,562.857 478.549,562.834  "/>   <polygon style="fill:#E2ECFE;" points="494.374,567.368 500.623,567.392 500.475,562.916 494.226,562.892  "/>   <polygon style="fill:#E2ECFE;" points="507.716,567.418 513.965,567.441 513.817,562.965 507.568,562.941  "/>   <polygon style="fill:#E2ECFE;" points="521.058,567.467 527.307,567.49 527.159,563.014 520.91,562.991  "/>   <polygon style="fill:#E2ECFE;" points="534.399,567.517 540.648,567.54 540.501,563.064 534.252,563.041  "/>   <polygon style="fill:#E2ECFE;" points="547.741,567.567 553.99,567.59 553.842,563.114 547.594,563.091  "/>   <polygon style="fill:#E2ECFE;" points="561.082,567.616 567.332,567.64 567.184,563.163 560.935,563.14  "/>   <polygon style="fill:#E2ECFE;" points="574.424,567.665 580.674,567.689 580.526,563.213 574.276,563.189  "/>   <polygon style="fill:#E2ECFE;" points="587.766,567.716 594.016,567.739 593.868,563.263 587.618,563.24  "/>   <polygon style="fill:#E2ECFE;" points="601.108,567.765 607.358,567.789 607.21,563.312 600.96,563.289  "/>   <polygon style="fill:#E2ECFE;" points="617.731,567.827 623.98,567.85 623.833,563.374 617.583,563.351  "/>   <polygon style="fill:#E2ECFE;" points="631.073,567.877 637.321,567.9 637.174,563.424 630.925,563.401  "/>   <polygon style="fill:#E2ECFE;" points="644.414,567.926 650.663,567.95 650.515,563.473 644.267,563.45  "/>   <polygon style="fill:#E2ECFE;" points="657.756,567.975 664.005,567.999 663.857,563.523 657.608,563.499  "/>   <polygon style="fill:#E2ECFE;" points="671.097,568.026 677.347,568.048 677.199,563.572 670.95,563.549  "/>   <polygon style="fill:#E2ECFE;" points="684.44,568.075 690.689,568.099 690.541,563.622 684.292,563.599  "/>   <polygon style="fill:#E2ECFE;" points="697.781,568.125 704.031,568.148 703.883,563.672 697.633,563.648  "/>   <polygon style="fill:#E2ECFE;" points="711.123,568.174 717.373,568.197 717.225,563.721 710.975,563.698  "/>   <polygon style="fill:#E2ECFE;" points="724.465,568.224 730.715,568.247 730.567,563.77 724.317,563.747  "/>   <polygon style="fill:#E2ECFE;" points="231.872,574.891 238.121,574.914 237.973,570.438 231.725,570.414  "/>   <polygon style="fill:#E2ECFE;" points="245.214,574.941 251.463,574.964 251.315,570.488 245.067,570.464  "/>   <polygon style="fill:#E2ECFE;" points="258.555,574.99 264.805,575.013 264.657,570.537 258.408,570.514  "/>   <polygon style="fill:#E2ECFE;" points="271.897,575.039 278.147,575.063 277.999,570.587 271.749,570.563  "/>   <polygon style="fill:#E2ECFE;" points="285.239,575.089 291.489,575.112 291.341,570.636 285.091,570.613  "/>   <polygon style="fill:#E2ECFE;" points="298.581,575.139 304.831,575.162 304.683,570.686 298.433,570.663  "/>   <polygon style="fill:#E2ECFE;" points="311.923,575.188 318.173,575.212 318.025,570.736 311.775,570.712  "/>   <polygon style="fill:#E2ECFE;" points="325.265,575.238 331.514,575.261 331.367,570.785 325.117,570.762  "/>   <polygon style="fill:#E2ECFE;" points="338.607,575.288 344.855,575.311 344.708,570.834 338.459,570.811  "/>   <polygon style="fill:#E2ECFE;" points="355.229,575.349 361.478,575.373 361.331,570.897 355.081,570.873  "/>   <polygon style="fill:#E2ECFE;" points="368.571,575.399 374.82,575.422 374.672,570.946 368.423,570.923  "/>   <polygon style="fill:#E2ECFE;" points="381.913,575.449 388.162,575.471 388.014,570.995 381.765,570.973  "/>   <polygon style="fill:#E2ECFE;" points="395.255,575.498 401.504,575.522 401.356,571.046 395.107,571.022  "/>   <polygon style="fill:#E2ECFE;" points="408.596,575.548 414.846,575.571 414.698,571.095 408.448,571.072  "/>   <polygon style="fill:#E2ECFE;" points="421.938,575.597 428.187,575.621 428.04,571.144 421.79,571.121  "/>   <polygon style="fill:#E2ECFE;" points="435.28,575.648 441.529,575.67 441.381,571.194 435.132,571.171  "/>   <polygon style="fill:#E2ECFE;" points="448.621,575.697 454.871,575.72 454.723,571.244 448.474,571.221  "/>   <polygon style="fill:#E2ECFE;" points="461.963,575.746 468.213,575.77 468.065,571.293 461.815,571.27  "/>   <polygon style="fill:#E2ECFE;" points="477.64,575.804 483.889,575.828 483.741,571.352 477.493,571.328  "/>   <polygon style="fill:#E2ECFE;" points="490.982,575.854 497.231,575.877 497.083,571.401 490.835,571.378  "/>   <polygon style="fill:#E2ECFE;" points="504.323,575.904 510.573,575.927 510.425,571.451 504.176,571.428  "/>   <polygon style="fill:#E2ECFE;" points="517.665,575.953 523.915,575.977 523.767,571.501 517.517,571.477  "/>   <polygon style="fill:#E2ECFE;" points="531.007,576.003 537.257,576.026 537.109,571.55 530.859,571.527  "/>   <polygon style="fill:#E2ECFE;" points="544.349,576.052 550.599,576.076 550.451,571.599 544.201,571.576  "/>   <polygon style="fill:#E2ECFE;" points="557.691,576.103 563.941,576.126 563.793,571.649 557.543,571.626  "/>   <polygon style="fill:#E2ECFE;" points="571.033,576.152 577.282,576.175 577.135,571.699 570.885,571.676  "/>   <polygon style="fill:#E2ECFE;" points="584.375,576.201 590.623,576.225 590.477,571.748 584.227,571.725  "/>   <polygon style="fill:#E2ECFE;" points="600.997,576.263 607.246,576.287 607.098,571.811 600.849,571.787  "/>   <polygon style="fill:#E2ECFE;" points="614.339,576.313 620.588,576.336 620.44,571.86 614.191,571.837  "/>   <polygon style="fill:#E2ECFE;" points="627.68,576.362 633.93,576.386 633.782,571.909 627.533,571.886  "/>   <polygon style="fill:#E2ECFE;" points="641.022,576.412 647.272,576.435 647.124,571.959 640.875,571.936  "/>   <polygon style="fill:#E2ECFE;" points="654.364,576.462 660.614,576.485 660.466,572.009 654.216,571.986  "/>   <polygon style="fill:#E2ECFE;" points="667.706,576.511 673.955,576.535 673.808,572.058 667.558,572.035  "/>   <polygon style="fill:#E2ECFE;" points="681.048,576.561 687.297,576.584 687.149,572.108 680.9,572.084  "/>   <polygon style="fill:#E2ECFE;" points="694.389,576.611 700.639,576.633 700.491,572.157 694.242,572.135  "/>   <polygon style="fill:#E2ECFE;" points="707.731,576.66 713.981,576.684 713.833,572.207 707.583,572.184  "/>  </g>  <rect x="76.759" y="121.607" style="fill:#E9F1FE;" width="85.464" height="240.742"/>  <g>   <path style="fill:#FFFFFF;" d="M121.737,186.764c-0.972,0-1.76-0.789-1.76-1.76v-74.689c0-0.972,0.789-1.76,1.76-1.76    s1.76,0.789,1.76,1.76v74.689C123.498,185.975,122.709,186.764,121.737,186.764z"/>  </g>  <g>       <linearGradient id="SVGID_1_" gradientUnits="userSpaceOnUse" x1="5436.8999" y1="-4483.9253" x2="6472.8926" y2="-4483.9253" gradientTransform="matrix(-0.096 0.028 -0.028 -0.096 498.6448 -96.0095)">    <stop  offset="0" style="stop-color:#B9D3FD"/>    <stop  offset="1" style="stop-color:#89B3F4"/>   </linearGradient>   <path style="fill:url(#SVGID_1_);" d="M7.744,530.594c-0.135,3.551,2.152,6.723,4.627,9.274    c6.84,7.052,16.024,11.791,25.735,13.279c5.43,0.833,10.964,0.675,16.425,1.275c15.934,1.748,31.015,10.249,40.763,22.974    c-4.578-9.492-2.183-20.872,1.835-30.614c4.018-9.742,9.609-18.998,11.467-29.371c1.597-8.913-1.684-20.472-10.628-21.89    c-6.599-1.047-12.946,4.128-19.578,3.313c-2.345-0.288-4.826-1.629-5.367-3.929c-1.384-5.878,10.143-8.795,8.742-14.67    c-1.602-6.716-18.479,0.3-18.102-6.594c0.16-2.936,3.642-4.768,4.221-7.65s-0.53-6.332-3.244-7.462    c-3.591-1.495-7.405,1.619-11.285,1.885c-4.417,0.304-8.273-3.197-10.331-7.117c-2.058-3.92-2.886-8.372-4.725-12.399    c-4.525-9.912-15.579-16.434-26.443-15.603c-10.865,0.831-20.797,8.959-23.761,19.445c-1.216,4.301-1.038,9.599,2.437,12.409    c2.941,2.378,8.008,2.943,8.699,6.661c0.943,5.075-7.991,8.154-6.709,13.154c1.495,5.834,13.395,2.371,14.743,8.241    c0.602,2.62-1.666,4.921-2.729,7.391c-1.994,4.634,1.108,10.708,6.031,11.81c1.956,0.438,4.097,0.206,5.869,1.143    c4.407,2.33,2.771,9.206-0.541,12.933C12.581,522.21,7.933,525.612,7.744,530.594z"/>       <linearGradient id="SVGID_2_" gradientUnits="userSpaceOnUse" x1="5774.7617" y1="-4725.3789" x2="6856.0459" y2="-4725.3789" gradientTransform="matrix(-0.096 0.028 -0.028 -0.096 498.6448 -96.0095)">    <stop  offset="0" style="stop-color:#DEEAFE"/>    <stop  offset="1" style="stop-color:#E9F1FE"/>   </linearGradient>   <path style="fill:url(#SVGID_2_);" d="M37.831,522.267c-2.826-0.614-5.763-1.089-8.237-2.587    c-5.257-3.183-6.913-9.852-8.947-15.651c-2.034-5.799-6.144-12.142-12.29-12.07c-5.13,0.061-10.299,4.723-14.821,2.299    c-1.68-0.9-2.751-2.599-4.146-3.896c-6.002-5.575-16.571-1.922-20.896,5.036c-4.325,6.957-4.203,15.689-3.944,23.877    c0.094,2.985,1.145,6.947,4.13,6.881c2.838-0.062,4.532-4.09,7.356-3.815c2.266,0.221,3.233,3.052,3.108,5.325    c-0.124,2.273-0.765,4.718,0.333,6.712c2.096,3.805,7.894,2.359,11.594,0.081s8.635-4.87,11.952-2.065    c-0.148,8.956,0.555,19.565,8.171,24.281c8.809,5.454,20.764,1.128,30.937-0.836c18.902-3.649,35.995,6.59,50.78,18.917    C85.997,548.995,63.895,527.934,37.831,522.267z"/>   <g>    <path style="fill:#428DFC;" d="M95.086,579.023c-0.174,0-0.34-0.105-0.408-0.276c-6.641-16.644-12.154-33.971-16.384-51.5     c-0.057-0.237,0.088-0.474,0.325-0.532c0.236-0.051,0.474,0.088,0.531,0.325c4.221,17.488,9.721,34.775,16.346,51.379     c0.091,0.226-0.019,0.482-0.246,0.572C95.196,579.013,95.14,579.023,95.086,579.023z"/>   </g>       <ellipse transform="matrix(0.2389 0.971 -0.971 0.2389 569.8715 323.5261)" style="fill:#23286B;" cx="78.554" cy="525.291" rx="3.435" ry="9.185"/>   <g>    <path style="fill:#428DFC;" d="M78.214,525.459c-0.2,0-0.38-0.136-0.428-0.34c-2.328-9.894-4.283-20.007-5.812-30.058     c-0.037-0.24,0.129-0.465,0.369-0.501c0.24-0.035,0.465,0.129,0.501,0.369c1.525,10.028,3.476,20.117,5.799,29.989     c0.055,0.237-0.092,0.474-0.327,0.529C78.281,525.455,78.248,525.459,78.214,525.459z"/>   </g>       <ellipse transform="matrix(0.3323 0.9432 -0.9432 0.3323 512.8318 260.9621)" style="fill:#23286B;" cx="72.104" cy="492.683" rx="4.139" ry="11.068"/>   <g>    <path style="fill:#428DFC;" d="M72.015,492.78c-0.216,0-0.403-0.158-0.435-0.378c-1.206-8.317-2.147-16.778-2.797-25.148     c-0.018-0.242,0.163-0.455,0.405-0.473c0.25-0.033,0.454,0.163,0.473,0.404c0.649,8.351,1.588,16.792,2.79,25.091     c0.035,0.239-0.131,0.463-0.372,0.498C72.056,492.778,72.035,492.78,72.015,492.78z"/>   </g>       <ellipse transform="matrix(0.0264 0.9997 -0.9997 0.0264 532.1817 382.4159)" style="fill:#23286B;" cx="69.767" cy="464.418" rx="4.139" ry="11.068"/>   <g>    <path style="fill:#428DFC;" d="M68.966,464.182c-0.23,0-0.423-0.178-0.439-0.41c-0.437-6.38-0.716-12.851-0.827-19.232     c-0.004-0.243,0.189-0.444,0.432-0.448c0.003,0,0.005,0,0.008,0c0.239,0,0.436,0.192,0.44,0.432     c0.112,6.367,0.389,12.823,0.826,19.188c0.017,0.242-0.166,0.452-0.409,0.469C68.987,464.182,68.976,464.182,68.966,464.182z"/>   </g>       <ellipse transform="matrix(0.0264 0.9997 -0.9997 0.0264 507.3524 361.3566)" style="fill:#23286B;" cx="68.164" cy="441.142" rx="5.549" ry="14.839"/>   <g>    <path style="fill:#428DFC;" d="M68.089,440.626c-0.242,0-0.439-0.195-0.44-0.438c-0.026-4.267,0.022-8.584,0.142-12.831     c0.007-0.243,0.202-0.422,0.452-0.428c0.243,0.007,0.435,0.21,0.428,0.452c-0.12,4.238-0.167,8.545-0.142,12.802     c0.001,0.243-0.195,0.441-0.437,0.443C68.091,440.626,68.09,440.626,68.089,440.626z"/>   </g>  </g>  <path id="texture_20_" style="fill:#D6D7D8;" d="M606.661,374.738c0.115,0.427,0.463,0.7,0.891,0.585l0,0   c0.427-0.115,0.7-0.464,0.585-0.891l0,0c-0.115-0.427-0.463-0.7-0.891-0.585l0,0C606.819,373.961,606.546,374.31,606.661,374.738   L606.661,374.738z M635.159,443.136c-0.273,0.349-0.158,0.776,0.191,1.048c0.349,0.273,0.775,0.158,1.048-0.191l0,0   c0.273-0.349,0.158-0.775-0.191-1.048C635.898,442.479,635.432,442.788,635.159,443.136L635.159,443.136L635.159,443.136z    M644.914,426.945c-0.273,0.349-0.158,0.775,0.191,1.048s0.776,0.158,1.048-0.191l0,0c0.273-0.349,0.158-0.776-0.191-1.048l0,0   C645.808,426.522,645.186,426.597,644.914,426.945L644.914,426.945z M611.785,410.11c0.349,0.273,0.736,0.352,1.164,0.237   c0.273-0.349,0.352-0.736,0.237-1.164c-0.349-0.273-0.736-0.352-0.97-0.197C611.556,409.256,611.477,409.644,611.785,410.11z    M627.191,398.906c0.349,0.273,0.736,0.352,1.164,0.237c0.273-0.349,0.352-0.736,0.237-1.164c-0.349-0.273-0.736-0.352-0.97-0.197   C626.961,398.051,626.843,398.633,627.191,398.906L627.191,398.906z M672.984,447.801c-0.079,0.388,0.23,0.855,0.618,0.933   c0.388,0.079,0.855-0.23,0.933-0.618l0,0c0.079-0.388-0.23-0.855-0.618-0.933l0,0C673.529,447.104,673.063,447.413,672.984,447.801z    M675.994,429.026c-0.079,0.388,0.23,0.855,0.618,0.933c0.388,0.079,0.855-0.23,0.933-0.618c0.079-0.388-0.23-0.855-0.618-0.933l0,0   C676.54,428.329,676.073,428.638,675.994,429.026L675.994,429.026L675.994,429.026z M601.356,394.863   c0.155,0.233,0.697,0.546,0.97,0.197c0.233-0.155,0.546-0.697,0.197-0.97c-0.154-0.233-0.697-0.546-0.97-0.197l0,0   C601.126,394.008,601.047,394.396,601.356,394.863L601.356,394.863z M615.861,386.1c0.154,0.233,0.697,0.546,0.97,0.197   c0.233-0.155,0.506-0.503,0.197-0.97c-0.155-0.233-0.503-0.506-0.97-0.197l0,0C615.785,385.478,615.707,385.867,615.861,386.1   L615.861,386.1L615.861,386.1z M658.038,436.885c-0.079,0.388,0.036,0.815,0.424,0.894c0.388,0.079,0.621-0.076,0.894-0.424l0,0   c0.079-0.388-0.036-0.815-0.424-0.894l0,0C658.544,436.382,658.117,436.497,658.038,436.885L658.038,436.885z M662.166,420.559   c-0.079,0.388,0.036,0.815,0.424,0.894s0.621-0.076,0.894-0.424l0,0c0.079-0.388-0.036-0.815-0.424-0.894l0,0   C662.672,420.056,662.246,420.172,662.166,420.559L662.166,420.559z M629.472,413.505c-0.273,0.349-0.158,0.776,0.191,1.048   c0.349,0.273,0.775,0.158,1.048-0.191s0.158-0.776-0.191-1.048C630.172,413.042,629.745,413.157,629.472,413.505L629.472,413.505z    M592.728,410.476c-0.273,0.349-0.158,0.776,0.191,1.048c0.349,0.273,0.776,0.158,1.048-0.191c0.273-0.349,0.158-0.776-0.191-1.048   C593.429,410.012,593.001,410.127,592.728,410.476L592.728,410.476z M604.383,394.872c-0.273,0.349-0.158,0.776,0.191,1.048   c0.349,0.273,0.776,0.158,1.048-0.191c0.273-0.349,0.158-0.776-0.191-1.048C605.083,394.409,604.656,394.524,604.383,394.872   L604.383,394.872z M615.884,379.037c-0.273,0.349-0.158,0.776,0.191,1.048c0.349,0.273,0.776,0.158,1.048-0.191   c0.273-0.349,0.158-0.776-0.191-1.048C616.545,378.767,616.117,378.882,615.884,379.037z M672.184,430.876   c0.115,0.427,0.463,0.7,0.891,0.585c0.427-0.115,0.7-0.464,0.585-0.891c-0.115-0.427-0.463-0.7-0.891-0.585   C672.382,429.907,672.07,430.449,672.184,430.876L672.184,430.876z M605.448,353.893c-0.467,0.309-0.546,0.697-0.237,1.164    M631.316,419.334c-0.079,0.388,0.23,0.855,0.618,0.933c0.388,0.078,0.855-0.23,0.933-0.618c0.078-0.388-0.23-0.855-0.618-0.933l0,0   C631.861,418.636,631.395,418.945,631.316,419.334L631.316,419.334L631.316,419.334z M617.965,419.445   c-0.079,0.388,0.23,0.855,0.618,0.933c0.388,0.079,0.855-0.23,0.933-0.618c0.078-0.388-0.036-0.815-0.618-0.933   C618.511,418.748,618.044,419.057,617.965,419.445L617.965,419.445z M623.382,400.756c-0.079,0.388,0.23,0.855,0.618,0.933   c0.388,0.079,0.815-0.036,0.933-0.618c0.079-0.388-0.23-0.855-0.578-1.128C623.927,400.059,623.46,400.368,623.382,400.756   L623.382,400.756z M599.321,376.072c-0.273,0.349-0.158,0.776,0.191,1.048l0,0c0.349,0.273,0.776,0.158,1.242-0.151   c0.273-0.349,0.158-0.776-0.151-1.242C600.022,375.608,599.594,375.724,599.321,376.072L599.321,376.072z M606.973,374.195   c-0.079,0.388,0.076,0.621,0.23,0.855c0.388,0.079,0.621-0.076,0.855-0.23c0.079-0.388-0.076-0.621-0.23-0.855l0,0   C607.44,373.887,607.013,374.001,606.973,374.195L606.973,374.195L606.973,374.195z"/>  <path id="texture_21_" style="fill:#D6D7D8;" d="M164.336,43.361c0.115,0.427,0.463,0.7,0.891,0.585l0,0   c0.427-0.115,0.7-0.464,0.585-0.891l0,0c-0.115-0.427-0.463-0.7-0.891-0.585l0,0C164.493,42.585,164.22,42.934,164.336,43.361   L164.336,43.361z M192.833,111.76c-0.273,0.349-0.158,0.775,0.191,1.048c0.349,0.273,0.775,0.158,1.048-0.191l0,0   c0.273-0.349,0.158-0.775-0.191-1.048C193.572,111.103,193.106,111.412,192.833,111.76L192.833,111.76L192.833,111.76z    M202.588,95.569c-0.273,0.349-0.158,0.775,0.191,1.048c0.349,0.273,0.775,0.158,1.048-0.191l0,0   c0.273-0.349,0.158-0.775-0.191-1.048l0,0C203.482,95.145,202.861,95.221,202.588,95.569L202.588,95.569z M169.46,78.734   c0.349,0.273,0.736,0.352,1.164,0.237c0.273-0.349,0.352-0.736,0.237-1.164c-0.349-0.273-0.736-0.352-0.97-0.197   C169.23,77.879,169.151,78.268,169.46,78.734z M184.865,67.529c0.349,0.273,0.736,0.352,1.164,0.237   c0.273-0.349,0.352-0.736,0.237-1.164c-0.349-0.273-0.736-0.352-0.97-0.197C184.635,66.675,184.517,67.257,184.865,67.529   L184.865,67.529z M230.658,116.424c-0.079,0.388,0.23,0.855,0.618,0.933c0.388,0.079,0.855-0.23,0.933-0.618l0,0   c0.079-0.388-0.23-0.855-0.618-0.933l0,0C231.204,115.727,230.737,116.036,230.658,116.424z M233.668,97.65   c-0.079,0.388,0.23,0.855,0.618,0.933c0.388,0.079,0.855-0.23,0.933-0.618c0.079-0.388-0.23-0.855-0.618-0.933l0,0   C234.214,96.953,233.747,97.262,233.668,97.65L233.668,97.65L233.668,97.65z M159.03,63.487c0.155,0.233,0.697,0.546,0.97,0.197   c0.233-0.155,0.546-0.697,0.197-0.97c-0.155-0.233-0.697-0.546-0.97-0.197l0,0C158.801,62.632,158.721,63.02,159.03,63.487   L159.03,63.487z M173.535,54.724c0.155,0.233,0.697,0.546,0.97,0.197c0.233-0.155,0.506-0.503,0.197-0.97   c-0.155-0.233-0.503-0.506-0.97-0.197l0,0C173.459,54.102,173.381,54.49,173.535,54.724L173.535,54.724L173.535,54.724z    M215.712,105.509c-0.079,0.388,0.036,0.815,0.424,0.894c0.388,0.079,0.621-0.076,0.894-0.424l0,0   c0.079-0.388-0.036-0.815-0.424-0.894l0,0C216.218,105.006,215.791,105.12,215.712,105.509L215.712,105.509z M219.84,89.183   c-0.079,0.388,0.036,0.815,0.424,0.894c0.388,0.079,0.621-0.076,0.894-0.424l0,0c0.079-0.388-0.036-0.815-0.424-0.894l0,0   C220.347,88.68,219.92,88.795,219.84,89.183L219.84,89.183z M187.146,82.129c-0.273,0.349-0.158,0.775,0.191,1.048   c0.349,0.273,0.775,0.158,1.048-0.191c0.273-0.349,0.158-0.775-0.191-1.048C187.846,81.666,187.419,81.781,187.146,82.129   L187.146,82.129z M150.402,79.099c-0.273,0.349-0.158,0.775,0.191,1.048c0.349,0.273,0.775,0.158,1.048-0.191   s0.158-0.775-0.191-1.048C151.103,78.636,150.675,78.751,150.402,79.099L150.402,79.099z M162.058,63.496   c-0.273,0.349-0.158,0.775,0.191,1.048c0.349,0.273,0.775,0.158,1.048-0.191c0.273-0.349,0.158-0.775-0.191-1.048   C162.757,63.033,162.33,63.148,162.058,63.496L162.058,63.496z M173.558,47.661c-0.273,0.349-0.158,0.775,0.191,1.048   s0.775,0.158,1.048-0.191c0.273-0.349,0.158-0.775-0.191-1.048C174.219,47.39,173.791,47.506,173.558,47.661z M229.859,99.5   c0.115,0.427,0.463,0.7,0.891,0.585c0.427-0.115,0.7-0.464,0.585-0.891c-0.115-0.427-0.463-0.7-0.891-0.585   C230.057,98.531,229.744,99.073,229.859,99.5L229.859,99.5z M163.123,22.516c-0.467,0.309-0.546,0.697-0.237,1.164 M188.99,87.957   c-0.079,0.388,0.23,0.855,0.618,0.933c0.388,0.079,0.855-0.23,0.933-0.618c0.079-0.388-0.23-0.855-0.618-0.933l0,0   C189.536,87.26,189.069,87.569,188.99,87.957L188.99,87.957L188.99,87.957z M175.639,88.069c-0.079,0.388,0.23,0.855,0.618,0.933   c0.388,0.079,0.855-0.23,0.933-0.618c0.079-0.388-0.036-0.815-0.618-0.933C176.185,87.372,175.718,87.681,175.639,88.069   L175.639,88.069z M181.056,69.38c-0.079,0.388,0.23,0.855,0.618,0.933c0.388,0.079,0.815-0.036,0.933-0.618   c0.079-0.388-0.23-0.855-0.578-1.128C181.601,68.683,181.134,68.992,181.056,69.38L181.056,69.38z M156.995,44.696   c-0.273,0.349-0.158,0.775,0.191,1.048l0,0c0.349,0.273,0.775,0.158,1.242-0.151c0.273-0.349,0.158-0.775-0.151-1.242   C157.696,44.232,157.268,44.347,156.995,44.696L156.995,44.696z M164.647,42.819c-0.079,0.388,0.076,0.621,0.23,0.855   c0.388,0.079,0.621-0.076,0.855-0.23c0.079-0.388-0.076-0.621-0.23-0.855l0,0C165.114,42.51,164.687,42.625,164.647,42.819   L164.647,42.819L164.647,42.819z"/>  <rect x="72.051" y="109.483" style="fill:#FFFFFF;" width="96.671" height="4.794"/>  <rect x="72.051" y="117.071" style="fill:#FFFFFF;" width="96.671" height="4.794"/>  <rect x="72.051" y="124.66" style="fill:#FFFFFF;" width="96.671" height="4.794"/>  <rect x="72.051" y="132.249" style="fill:#FFFFFF;" width="96.671" height="4.794"/>  <rect x="72.051" y="139.837" style="fill:#FFFFFF;" width="96.671" height="4.794"/>  <rect x="72.051" y="147.426" style="fill:#FFFFFF;" width="96.671" height="4.794"/>  <rect x="72.051" y="155.015" style="fill:#FFFFFF;" width="96.671" height="4.794"/>  <rect x="72.051" y="162.604" style="fill:#FFFFFF;" width="96.671" height="4.794"/>  <rect x="72.051" y="170.192" style="fill:#FFFFFF;" width="96.671" height="4.794"/>  <rect x="146.49" y="313.939" style="fill:#A1C3FC;" width="9.882" height="48.173"/>  <rect x="135.798" y="321.444" transform="matrix(-0.9703 -0.2421 0.2421 -0.9703 190.3322 706.9593)" style="fill:#A1C3FC;" width="5.602" height="40.685"/>  <rect x="127.776" y="321.438" transform="matrix(-0.942 -0.3357 0.3357 -0.942 138.8454 707.5619)" style="fill:#A1C3FC;" width="5.602" height="40.684"/>  <rect x="242.348" y="121.607" style="fill:#E9F1FE;" width="85.464" height="240.742"/>  <g>   <path style="fill:#FFFFFF;" d="M286.52,186.764c-0.972,0-1.76-0.789-1.76-1.76v-74.689c0-0.972,0.789-1.76,1.76-1.76    c0.972,0,1.76,0.789,1.76,1.76v74.689C288.28,185.975,287.493,186.764,286.52,186.764z"/>  </g>  <rect x="236.834" y="109.483" style="fill:#FFFFFF;" width="96.671" height="4.794"/>  <rect x="236.834" y="117.071" style="fill:#FFFFFF;" width="96.671" height="4.794"/>  <rect x="236.834" y="124.66" style="fill:#FFFFFF;" width="96.671" height="4.794"/>  <rect x="236.834" y="132.249" style="fill:#FFFFFF;" width="96.671" height="4.794"/>  <rect x="236.834" y="139.837" style="fill:#FFFFFF;" width="96.671" height="4.794"/>  <rect x="236.834" y="147.426" style="fill:#FFFFFF;" width="96.671" height="4.794"/>  <rect x="236.834" y="155.015" style="fill:#FFFFFF;" width="96.671" height="4.794"/>  <rect x="236.834" y="162.604" style="fill:#FFFFFF;" width="96.671" height="4.794"/>  <rect x="236.834" y="170.192" style="fill:#FFFFFF;" width="96.671" height="4.794"/>  <polygon style="fill:#FFFFFF;" points="278.227,362.979 256.425,362.979 252.614,337.566 282.039,337.566 "/>  <rect x="293.026" y="356.332" style="fill:#A1C3FC;" width="30.093" height="5.818"/>  <rect x="288.612" y="350.513" style="fill:#A1C3FC;" width="30.093" height="5.818"/>  <path style="fill:#FFFFFF;" d="M264.405,325.458c-0.535-0.673-1.121-1.333-1.409-2.142c-0.612-1.719,0.26-3.564,0.881-5.28   c0.621-1.716,0.867-3.946-0.561-5.083c-1.191-0.95-3.255-0.848-3.841-2.254c-0.217-0.522-0.144-1.114-0.222-1.674   c-0.334-2.409-3.451-3.554-5.752-2.765c-2.301,0.788-3.913,2.819-5.391,4.751c-0.539,0.704-1.041,1.812-0.342,2.358   c0.665,0.518,1.81-0.09,2.408,0.504c0.48,0.476,0.171,1.309-0.285,1.808c-0.455,0.499-1.062,0.941-1.184,1.606   c-0.232,1.268,1.372,2.025,2.651,2.195c1.279,0.171,2.9,0.501,3.136,1.769c-1.716,2.032-3.546,4.605-2.679,7.119   c1.002,2.908,4.564,4.158,7.273,5.617c5.032,2.71,7.041,8.274,8.127,13.886C270.464,340.648,269.336,331.655,264.405,325.458z"/>  <g>   <path style="fill:#FFFFFF;" d="M267.009,341.946c-0.239,0-0.437-0.193-0.44-0.432c-0.08-4.82,0.188-9.702,0.799-14.512    c0.031-0.241,0.25-0.414,0.492-0.382c0.241,0.031,0.412,0.251,0.381,0.492c-0.606,4.769-0.871,9.61-0.792,14.387    c0.004,0.243-0.189,0.444-0.433,0.448C267.015,341.946,267.012,341.946,267.009,341.946z"/>  </g>  <ellipse transform="matrix(-0.1215 0.9926 -0.9926 -0.1215 624.6537 100.3147)" style="fill:#FFFFFF;" cx="267.935" cy="326.585" rx="0.921" ry="2.462"/>  <g>   <path style="fill:#FFFFFF;" d="M267.881,326.916c-0.019,0-0.039-0.001-0.058-0.004c-0.24-0.033-0.41-0.254-0.379-0.495    c0.36-2.712,0.834-5.442,1.409-8.112c0.051-0.238,0.284-0.386,0.523-0.338c0.238,0.052,0.388,0.285,0.337,0.524    c-0.57,2.648-1.04,5.354-1.397,8.042C268.287,326.755,268.098,326.916,267.881,326.916z"/>  </g>  <ellipse transform="matrix(-0.0242 0.9997 -0.9997 -0.0242 593.6453 56.1671)" style="fill:#FFFFFF;" cx="269.411" cy="317.808" rx="1.109" ry="2.967"/>  <g>   <path style="fill:#FFFFFF;" d="M269.438,318.135c-0.032,0-0.064-0.004-0.096-0.011c-0.238-0.054-0.386-0.288-0.334-0.525    c0.491-2.203,1.062-4.42,1.699-6.589c0.069-0.233,0.312-0.365,0.547-0.298c0.233,0.068,0.367,0.313,0.298,0.546    c-0.631,2.15-1.198,4.348-1.684,6.532C269.822,317.996,269.639,318.135,269.438,318.135z"/>  </g>  <ellipse transform="matrix(-0.3303 0.9439 -0.9439 -0.3303 654.2656 156.7499)" style="fill:#FFFFFF;" cx="271.524" cy="310.485" rx="1.109" ry="2.967"/>  <g>   <path style="fill:#FFFFFF;" d="M271.396,310.68c-0.042,0-0.085-0.006-0.128-0.018c-0.233-0.07-0.364-0.316-0.293-0.549    c0.499-1.644,1.047-3.298,1.629-4.914c0.082-0.229,0.333-0.347,0.563-0.266c0.229,0.083,0.348,0.335,0.265,0.563    c-0.577,1.602-1.12,3.242-1.614,4.872C271.759,310.557,271.585,310.68,271.396,310.68z"/>  </g>  <ellipse transform="matrix(-0.3303 0.9439 -0.9439 -0.3303 651.0281 147.0735)" style="fill:#FFFFFF;" cx="273.338" cy="304.498" rx="1.488" ry="3.978"/>  <g>   <path style="fill:#FFFFFF;" d="M273.418,304.692c-0.051,0-0.103-0.009-0.154-0.027c-0.228-0.085-0.343-0.339-0.258-0.567    c0.4-1.075,0.825-2.156,1.26-3.212c0.092-0.225,0.352-0.334,0.575-0.239c0.224,0.092,0.332,0.349,0.239,0.574    c-0.435,1.055-0.852,2.116-1.25,3.185C273.765,304.583,273.597,304.692,273.418,304.692z"/>  </g>  <rect x="489.251" y="121.607" style="fill:#E9F1FE;" width="85.464" height="240.742"/>  <g>   <path style="fill:#FFFFFF;" d="M534.23,186.764c-0.972,0-1.76-0.789-1.76-1.76v-74.689c0-0.972,0.789-1.76,1.76-1.76    c0.972,0,1.76,0.789,1.76,1.76v74.689C535.99,185.975,535.201,186.764,534.23,186.764z"/>  </g>  <rect x="484.542" y="109.483" style="fill:#FFFFFF;" width="96.671" height="4.794"/>  <rect x="484.542" y="117.071" style="fill:#FFFFFF;" width="96.671" height="4.794"/>  <rect x="484.542" y="124.66" style="fill:#FFFFFF;" width="96.671" height="4.794"/>  <rect x="484.542" y="132.249" style="fill:#FFFFFF;" width="96.671" height="4.794"/>  <rect x="484.542" y="139.837" style="fill:#FFFFFF;" width="96.671" height="4.794"/>  <rect x="484.542" y="147.426" style="fill:#FFFFFF;" width="96.671" height="4.794"/>  <rect x="484.542" y="155.015" style="fill:#FFFFFF;" width="96.671" height="4.794"/>  <rect x="484.542" y="162.604" style="fill:#FFFFFF;" width="96.671" height="4.794"/>  <rect x="484.542" y="170.192" style="fill:#FFFFFF;" width="96.671" height="4.794"/>  <rect x="558.982" y="313.939" style="fill:#A1C3FC;" width="9.882" height="48.173"/>  <rect x="548.311" y="321.442" transform="matrix(-0.9703 -0.2421 0.2421 -0.9703 1003.0887 806.8203)" style="fill:#A1C3FC;" width="5.602" height="40.685"/>  <rect x="540.285" y="321.43" transform="matrix(-0.942 -0.3357 0.3357 -0.942 939.9287 846.0198)" style="fill:#A1C3FC;" width="5.602" height="40.684"/>  <rect x="654.034" y="121.607" style="fill:#E9F1FE;" width="85.464" height="240.742"/>  <g>   <path style="fill:#FFFFFF;" d="M699.012,186.764c-0.972,0-1.76-0.789-1.76-1.76v-74.689c0-0.972,0.789-1.76,1.76-1.76    s1.76,0.789,1.76,1.76v74.689C700.772,185.975,699.983,186.764,699.012,186.764z"/>  </g>  <rect x="649.325" y="109.483" style="fill:#FFFFFF;" width="96.671" height="4.794"/>  <rect x="649.325" y="117.071" style="fill:#FFFFFF;" width="96.671" height="4.794"/>  <rect x="649.325" y="124.66" style="fill:#FFFFFF;" width="96.671" height="4.794"/>  <rect x="649.325" y="132.249" style="fill:#FFFFFF;" width="96.671" height="4.794"/>  <rect x="649.325" y="139.837" style="fill:#FFFFFF;" width="96.671" height="4.794"/>  <rect x="649.325" y="147.426" style="fill:#FFFFFF;" width="96.671" height="4.794"/>  <rect x="649.325" y="155.015" style="fill:#FFFFFF;" width="96.671" height="4.794"/>  <rect x="649.325" y="162.604" style="fill:#FFFFFF;" width="96.671" height="4.794"/>  <rect x="649.325" y="170.192" style="fill:#FFFFFF;" width="96.671" height="4.794"/>  <g>   <polygon style="fill:#A1C3FC;" points="134.544,112.269 134.539,112.269 132.517,114.973 146.693,118.091 143.876,114.321  "/>   <polygon style="fill:#A1C3FC;" points="128.675,120.114 152.047,125.253 149.229,121.483 130.697,117.409  "/>   <polygon style="fill:#A1C3FC;" points="124.833,125.255 157.4,132.416 154.583,128.646 126.855,122.549  "/>   <polygon style="fill:#A1C3FC;" points="120.991,130.396 161.825,139.375 162.601,139.375 159.936,135.809 123.013,127.69  "/>   <polygon style="fill:#A1C3FC;" points="117.148,135.536 134.604,139.375 148.931,139.375 119.171,132.83  "/>   <polygon style="fill:#A1C3FC;" points="114.28,139.375 121.71,139.375 115.329,137.972  "/>   <g>    <rect x="138.001" y="9.273" style="fill:#A1C3FC;" width="0.88" height="105.774"/>   </g>  </g>  <g>   <polygon style="fill:#A1C3FC;" points="351.377,112.269 351.373,112.269 349.351,114.973 363.527,118.091 360.71,114.321  "/>   <polygon style="fill:#A1C3FC;" points="345.509,120.114 368.881,125.253 366.063,121.483 347.531,117.409  "/>   <polygon style="fill:#A1C3FC;" points="341.666,125.255 374.234,132.416 371.416,128.646 343.689,122.549  "/>   <polygon style="fill:#A1C3FC;" points="337.825,130.396 378.659,139.375 379.435,139.375 376.77,135.809 339.847,127.69  "/>   <polygon style="fill:#A1C3FC;" points="333.983,135.536 351.438,139.375 365.765,139.375 336.005,132.83  "/>   <polygon style="fill:#A1C3FC;" points="331.114,139.375 338.543,139.375 332.162,137.972  "/>   <g>    <rect x="354.834" y="9.273" style="fill:#A1C3FC;" width="0.88" height="105.774"/>   </g>  </g>  <g>   <polygon style="fill:#A1C3FC;" points="568.505,112.269 568.499,112.269 566.478,114.973 580.654,118.091 577.837,114.321  "/>   <polygon style="fill:#A1C3FC;" points="562.636,120.114 586.008,125.253 583.19,121.483 564.658,117.409  "/>   <polygon style="fill:#A1C3FC;" points="558.794,125.255 591.361,132.416 588.543,128.646 560.816,122.549  "/>   <polygon style="fill:#A1C3FC;" points="554.952,130.396 595.786,139.375 596.562,139.375 593.897,135.809 556.974,127.69  "/>   <polygon style="fill:#A1C3FC;" points="551.109,135.536 568.565,139.375 582.891,139.375 553.132,132.83  "/>   <polygon style="fill:#A1C3FC;" points="548.241,139.375 555.671,139.375 549.29,137.972  "/>   <g>    <rect x="571.961" y="9.273" style="fill:#A1C3FC;" width="0.88" height="105.774"/>   </g>  </g>  <path style="fill:#FFFFFF;" d="M711.519,268.435l-12.177,4.804c-0.04,1.625,0.177,3.22,0.735,4.758l13.165-5.194   c0.739-0.291,1.573,0.071,1.864,0.81c0.291,0.739-0.071,1.573-0.81,1.864l-12.92,5.098c0.942,1.424,2.168,2.639,3.609,3.624   l10.901-4.301c0.739-0.291,1.573,0.071,1.864,0.81c0.291,0.739-0.071,1.573-0.81,1.864l-8.561,3.378   c4.545,1.708,10.247,1.674,15.794-0.515c0.129-0.051,0.258-0.104,0.386-0.157c0.634,1.04,1.317,2.052,2.066,3.022   c2.103,2.721,5.644,6.207,10.569,7.369l0.33-1.399c-4.516-1.064-7.801-4.311-9.761-6.848c-0.676-0.875-1.298-1.791-1.879-2.735   c4.714-2.268,8.336-5.8,10.289-9.702l-8.135,3.209c-0.739,0.291-1.573-0.071-1.864-0.81c-0.291-0.738,0.071-1.573,0.81-1.864   l10.484-4.136c0.377-1.702,0.428-3.421,0.108-5.09l-12.182,4.806c-0.739,0.291-1.573-0.071-1.864-0.81   c-0.291-0.739,0.071-1.573,0.81-1.864l12.348-4.872c-0.688-1.457-1.695-2.745-2.922-3.894l-11.149,4.399   c-0.739,0.291-1.573-0.071-1.864-0.81c-0.291-0.739,0.071-1.573,0.81-1.864l9.582-3.781c-1.655-1.106-3.509-2.06-5.423-2.907   l-6.016,2.374c-0.739,0.291-1.573-0.071-1.864-0.81c-0.291-0.739,0.071-1.573,0.81-1.864l3.204-1.264   c-5.491-2.055-10.721-3.48-12.501-5.266c-0.576,3.113-3.431,7.596-5.947,12.544l4.147-1.636c0.739-0.291,1.573,0.071,1.864,0.81   c0.291,0.739-0.071,1.573-0.81,1.864l-6.988,2.757c-0.813,1.913-1.488,3.86-1.888,5.792l10.733-4.235   c0.739-0.291,1.573,0.071,1.864,0.81C712.62,267.309,712.258,268.144,711.519,268.435z"/>  <g>   <polygon style="fill:#428DFC;" points="67.64,91.436 52.869,85.442 70.672,41.57 82.393,46.326 67.848,82.169 59.179,78.651     70.209,51.469 71.84,52.13 61.472,77.681 66.878,79.875 80.099,47.295 71.642,43.863 55.163,84.472 66.67,89.142 79.019,58.713     80.65,59.375  "/>  </g>  <g>   <path style="fill:#428DFC;" d="M27.464,458.598l-12.154-9.747l30.425-37.936l8.894,7.134l-23.15,28.865    c-0.305,0.379-0.858,0.438-1.238,0.136c-0.379-0.305-0.44-0.858-0.136-1.238l22.049-27.491l-6.148-4.931l-28.222,35.19l9.408,7.545    l35.103-43.769l-12.668-10.16l-26.23,32.705c-0.304,0.38-0.858,0.439-1.238,0.136c-0.379-0.305-0.44-0.859-0.136-1.238    l27.332-34.077l15.414,12.362L27.464,458.598z"/>  </g>  <path style="fill:#428DFC;" d="M42.861,53.099c-7.427-3.959-14.991-4.274-16.895-0.702c-1.904,3.572,2.572,9.677,9.999,13.636   c7.427,3.959,14.991,4.274,16.895,0.702C54.765,63.163,50.288,57.058,42.861,53.099z M35.773,62.436l-4.181-1.195l0.092-2.095   l8.331-2.33l4.089,3.29L35.773,62.436z"/>  <polygon style="fill:#1D72D8;" points="43.958,60.116 39.869,56.826 48.337,46.408 51.809,45.855 52.427,49.698 "/>  <ellipse transform="matrix(-0.8169 0.5768 -0.5768 -0.8169 258.9283 655.4097)" style="fill:#428DFC;" cx="25.43" cy="368.805" rx="8.567" ry="14.145"/>  <linearGradient id="SVGID_3_" gradientUnits="userSpaceOnUse" x1="1201.3821" y1="2442.563" x2="1471.5101" y2="2442.563" gradientTransform="matrix(-0.0265 -0.0964 -0.0964 0.0265 297.8515 432.0334)">   <stop  offset="0" style="stop-color:#23286B"/>   <stop  offset="1" style="stop-color:#151A4F"/>  </linearGradient>  <path style="fill:url(#SVGID_3_);" d="M18.718,356.246c3.069-2.167,9.21,1.25,13.716,7.632s5.671,13.312,2.601,15.479   c-3.069,2.167-9.21-1.25-13.716-7.632S15.648,358.413,18.718,356.246z"/>  <polygon style="fill:#D6D7D8;" points="51.041,349.354 47.071,354.404 27.553,369.253 25.701,366.82 45.035,352.112 "/>  <linearGradient id="SVGID_4_" gradientUnits="userSpaceOnUse" x1="1530.2921" y1="2219.2424" x2="1797.6776" y2="2219.2424" gradientTransform="matrix(-0.0265 -0.0964 -0.0964 0.0265 297.8515 432.0334)">   <stop  offset="0" style="stop-color:#428DFC"/>   <stop  offset="1" style="stop-color:#1D72D8"/>  </linearGradient>  <circle style="fill:url(#SVGID_4_);" cx="39.726" cy="330.302" r="13.366"/>  <rect x="33.535" y="333.075" transform="matrix(-0.5066 0.8622 -0.8622 -0.5066 342.4395 474.1851)" style="fill:#E94A47;" width="4.004" height="4.004"/>  <rect x="38.582" y="320.663" transform="matrix(0.5295 0.8483 -0.8483 0.5295 293.4921 117.1904)" style="fill:#FFFFFF;" width="5.033" height="5.033"/>  <rect x="32.044" y="337.45" transform="matrix(-0.9672 0.2541 -0.2541 -0.9672 151.8017 658.013)" style="fill:#23286B;" width="2.721" height="2.721"/>  <g>       <rect x="39.272" y="330.057" transform="matrix(-0.9995 -0.0312 0.0312 -0.9995 77.4034 662.2011)" style="fill:#23286B;" width="9.193" height="0.88"/>  </g>  <g>       <rect x="30.971" y="326.343" transform="matrix(-0.1945 -0.9809 0.9809 -0.1945 -279.2934 424.2163)" style="fill:#E94A47;" width="7.124" height="0.88"/>  </g>  <path style="fill:#B8D1FD;" d="M725.66,453.768c-2.26-3.473-4.774-6.912-5.785-10.929c-2.149-8.535,2.879-16.995,6.647-24.949   c3.768-7.954,5.968-18.554-0.364-24.667c-5.286-5.104-15.245-5.56-17.41-12.581c-0.804-2.607-0.183-5.417-0.299-8.143   c-0.499-11.721-14.944-18.643-26.354-15.911c-11.41,2.731-20.078,11.747-28.059,20.347c-2.909,3.135-5.828,8.228-2.722,11.167   c2.953,2.793,8.734,0.397,11.333,3.522c2.085,2.506,0.22,6.363-2.195,8.552s-5.53,4.035-6.419,7.17   c-1.697,5.987,5.665,10.351,11.727,11.756c6.061,1.405,13.699,3.734,14.252,9.932c-9.168,8.973-19.135,20.487-16.126,32.957   c3.48,14.424,20.013,22.056,32.351,30.299c22.925,15.316,30.025,42.955,32.671,70.399C747.803,529.487,746.5,485.783,725.66,453.768   z"/>  <path style="fill:#ECF3FE;" d="M708.629,384.696l8.325-14.297c2.038,0.26,3.989,0.835,5.803,1.826l-9,15.457   c-0.505,0.867-0.211,1.979,0.656,2.484c0.867,0.505,1.979,0.211,2.484-0.656l8.833-15.169c1.599,1.449,2.884,3.212,3.839,5.2   l-7.452,12.799c-0.505,0.867-0.211,1.979,0.656,2.484c0.867,0.505,1.979,0.211,2.484-0.656l5.854-10.052   c1.266,6.003,0.137,13.121-3.656,19.635c-0.089,0.152-0.18,0.302-0.27,0.452c1.178,0.99,2.312,2.036,3.381,3.158   c2.998,3.146,6.679,8.235,7.19,14.609l-1.811,0.145c-0.468-5.844-3.899-10.568-6.694-13.502c-0.964-1.011-1.99-1.963-3.058-2.87   c-3.733,5.456-8.837,9.308-14.084,11.004l5.561-9.552c0.504-0.867,0.211-1.979-0.656-2.484c-0.867-0.505-1.979-0.211-2.484,0.656   l-7.167,12.308c-2.198,0.146-4.355-0.118-6.38-0.835l8.328-14.302c0.505-0.867,0.211-1.979-0.656-2.484   c-0.867-0.505-1.979-0.211-2.484,0.656l-8.442,14.498c-1.689-1.137-3.106-2.641-4.308-4.394l7.622-13.089   c0.505-0.867,0.211-1.979-0.656-2.484c-0.867-0.505-1.979-0.211-2.484,0.656l-6.552,11.251c-1.065-2.278-1.905-4.777-2.599-7.331   l4.113-7.064c0.504-0.867,0.211-1.979-0.656-2.484c-0.867-0.505-1.979-0.211-2.484,0.656l-2.19,3.761   c-1.521-7.252-2.303-14.058-4.193-16.623c3.999-0.126,10.144-2.838,16.806-5.037l-2.835,4.869c-0.504,0.867-0.211,1.979,0.656,2.484   c0.867,0.505,1.979,0.211,2.484-0.656l4.777-8.205c2.546-0.651,5.105-1.123,7.596-1.254l-7.338,12.602   c-0.505,0.867-0.211,1.979,0.656,2.484C707.012,385.856,708.124,385.563,708.629,384.696z"/>  <g>   <path style="fill:#428DFC;" d="M677.696,522.315l-14.77-5.995l17.803-43.872l11.72,4.756l-14.544,35.843l-8.67-3.517l11.03-27.183    c0.184-0.452,0.7-0.666,1.147-0.485c0.451,0.183,0.668,0.696,0.485,1.147l-10.368,25.551l5.406,2.194l13.221-32.58l-8.457-3.432    l-16.479,40.609l11.507,4.671l12.348-30.429c0.184-0.452,0.698-0.667,1.147-0.485c0.451,0.183,0.668,0.696,0.485,1.147    L677.696,522.315z"/>  </g>  </g>
              </svg>