<?xml version="1.0" encoding="iso-8859-1" ?>
<svg version="1.1" xmlns="http://www.w3.org/2000/svg" xmlns:xlink="http://www.w3.org/1999/xlink" viewBox="0 0 1396 785.25" width="1396" height="785.25">
	<g transform="translate(85.279 -46.31) scale(1.494 1.494) rotate(0 399.93975903614455 299.9598393574297)">
		<linearGradient id="SVGID_1_" gradientUnits="userSpaceOnUse" x1="861.8562" y1="-2476.7854" x2="3464.1475" y2="-2476.7854" gradientTransform="matrix(0.1 0 0 -0.1 0 18)">
			<stop offset="0" style="stop-color:#E8F1FE"/>
			<stop offset="1" style="stop-color:#C1D7F8"/>
		</linearGradient>
		<ellipse style="fill:url(#SVGID_1_);" cx="216.3" cy="265.679" rx="130.115" ry="132.422"/>
		<g style="opacity:0.69;">
			<g>
				<polygon style="fill:#87B4EA;" points="687.917,146.204 671.509,129.924 687.917,113.515 690.609,116.207 677.021,129.924      690.609,143.512   "/>
			</g>
			<g>
				<polygon style="fill:#87B4EA;" points="675.739,146.204 659.459,129.924 675.739,113.515 678.559,116.207 664.843,129.924      678.559,143.512   "/>
			</g>
		</g>
		<g>
			<path style="opacity:0.45;fill:#78A9EF;enable-background:new    ;" d="M713.684,499.628l12.435,6.41    c1.282,0.385,2.564,0.641,3.846,0.897l-19.357-9.999C711.633,497.962,712.658,498.859,713.684,499.628z"/>
			<path style="opacity:0.45;fill:#78A9EF;enable-background:new    ;" d="M707.018,493.091l28.202,14.486c0.641,0,1.41,0,2.051,0    l-31.407-16.152C706.249,491.937,706.633,492.45,707.018,493.091z"/>
			<path style="opacity:0.45;fill:#78A9EF;enable-background:new    ;" d="M704.326,488.476l36.663,18.844    c0.513-0.128,1.026-0.128,1.666-0.256l-38.842-19.998C703.941,487.578,704.07,487.963,704.326,488.476z"/>
			<path style="opacity:0.45;fill:#78A9EF;enable-background:new    ;" d="M703.429,484.758l42.175,21.664    c0.513-0.128,0.897-0.256,1.41-0.385l-43.585-22.434C703.3,483.989,703.3,484.374,703.429,484.758z"/>
			<path style="opacity:0.45;fill:#78A9EF;enable-background:new    ;" d="M703.557,481.682l46.021,23.587    c0.385-0.128,0.769-0.256,1.154-0.513l-46.918-24.1C703.557,480.912,703.557,481.297,703.557,481.682z"/>
			<path style="opacity:0.45;fill:#78A9EF;enable-background:new    ;" d="M704.198,478.733l48.713,25.126    c0.385-0.128,0.641-0.385,1.026-0.513l-49.482-25.51C704.326,478.092,704.198,478.477,704.198,478.733z"/>
			<path style="opacity:0.45;fill:#78A9EF;enable-background:new    ;" d="M705.095,476.041l50.764,26.151    c0.256-0.128,0.641-0.385,0.897-0.641l-51.405-26.407C705.352,475.528,705.223,475.785,705.095,476.041z"/>
			<path style="opacity:0.45;fill:#78A9EF;enable-background:new    ;" d="M706.249,473.477l52.302,26.92    c0.256-0.256,0.641-0.385,0.897-0.641l-52.687-27.177C706.633,472.836,706.505,473.221,706.249,473.477z"/>
			<path style="opacity:0.45;fill:#78A9EF;enable-background:new    ;" d="M708.3,470.913c-0.128,0.128-0.128,0.128-0.256,0.256    l53.071,27.305c0.256-0.256,0.513-0.385,0.769-0.641l-52.943-27.177C708.685,470.657,708.428,470.785,708.3,470.913z"/>
			<path style="opacity:0.45;fill:#78A9EF;enable-background:new    ;" d="M713.043,470.144c-0.256,0-0.385,0-0.641,0l50.892,26.151    c0.256-0.256,0.385-0.513,0.641-0.769l-49.61-25.51C713.812,470.144,713.428,470.144,713.043,470.144z"/>
			<path style="opacity:0.45;fill:#78A9EF;enable-background:new    ;" d="M717.402,469.632l47.687,24.485    c0.256-0.256,0.385-0.513,0.513-0.769l-47.046-24.1C718.299,469.375,717.914,469.503,717.402,469.632z"/>
			<path style="opacity:0.45;fill:#78A9EF;enable-background:new    ;" d="M720.991,468.221l45.764,23.587    c0.128-0.256,0.385-0.513,0.513-0.769l-45.252-23.203C721.76,467.837,721.375,468.093,720.991,468.221z"/>
			<path style="opacity:0.45;fill:#78A9EF;enable-background:new    ;" d="M723.939,466.555l44.354,22.818    c0.128-0.256,0.256-0.513,0.385-0.897l-43.842-22.562C724.452,466.042,724.196,466.299,723.939,466.555z"/>
			<path style="opacity:0.45;fill:#78A9EF;enable-background:new    ;" d="M726.247,464.504l43.072,22.177    c0.128-0.256,0.256-0.641,0.385-0.897l-42.816-22.049C726.76,464.119,726.503,464.247,726.247,464.504z"/>
			<path style="opacity:0.45;fill:#78A9EF;enable-background:new    ;" d="M728.17,462.325l42.047,21.664    c0.128-0.256,0.128-0.641,0.256-0.897l-41.79-21.536C728.554,461.812,728.426,462.068,728.17,462.325z"/>
			<path style="opacity:0.45;fill:#78A9EF;enable-background:new    ;" d="M729.708,459.889l41.15,21.152    c0-0.385,0.128-0.641,0.128-1.026l-40.765-21.023C730.092,459.376,729.964,459.633,729.708,459.889z"/>
			<path style="opacity:0.45;fill:#78A9EF;enable-background:new    ;" d="M771.114,476.938l-39.868-20.511    c-0.128,0.256-0.256,0.641-0.256,0.897l40.124,20.639C771.114,477.579,771.114,477.323,771.114,476.938z"/>
			<path style="opacity:0.45;fill:#78A9EF;enable-background:new    ;" d="M770.729,473.477l-38.842-19.998    c0,0.385-0.128,0.641-0.128,1.026l39.227,20.126C770.857,474.246,770.857,473.862,770.729,473.477z"/>
			<path style="opacity:0.45;fill:#78A9EF;enable-background:new    ;" d="M769.704,469.76l-37.047-19.101    c-0.128,0.256-0.256,0.513-0.385,0.897l37.817,19.485C770.088,470.657,769.96,470.272,769.704,469.76z"/>
			<path style="opacity:0.45;fill:#78A9EF;enable-background:new    ;" d="M767.781,465.786c-0.128-0.128-0.128-0.256-0.256-0.256    l-32.817-16.921c-0.385,0.128-0.641,0.385-0.897,0.641l34.612,17.819C768.294,466.683,768.037,466.17,767.781,465.786z"/>
			<path style="opacity:0.45;fill:#78A9EF;enable-background:new    ;" d="M761.756,459.248l-21.152-10.896    c-0.897-0.256-1.923-0.385-2.82-0.385l26.792,13.845C763.679,460.914,762.781,460.145,761.756,459.248z"/>
		</g>
		<linearGradient id="SVGID_2_" gradientUnits="userSpaceOnUse" x1="3785.9087" y1="-3135.6907" x2="7734.5659" y2="-3135.6907" gradientTransform="matrix(0.1 0 0 -0.1 0 18)">
			<stop offset="0" style="stop-color:#A1C3FC"/>
			<stop offset="1" style="stop-color:#78A9EF"/>
		</linearGradient>
		<path
			style="opacity:0.7;fill:url(#SVGID_2_);enable-background:new    ;"
			d="M728.811,161.715   c-2.307-2.948-4.615-5.769-6.922-8.589L378.591,416.176c2.051,3.077,4.23,6.025,6.538,8.973   c12.691,16.537,27.177,30.638,43.072,42.431l4.358-5.256l168.572-40.252c-0.128,2.179-0.256,4.358-0.385,6.538l-170.239,40.637   c1.282,0.897,2.692,1.923,3.974,2.82l165.88-39.611c-0.128,2.179-0.513,3.846-0.769,6.153L441.02,476.426   c0.769,0.513,1.666,1.026,2.564,1.538l155.625-37.176c-0.513,2.307-1.026,5.128-1.667,7.435l-145.498,34.74   c1.41,0.769,2.82,1.538,4.102,2.179l140.626-33.586c-0.641,1.795-1.282,4.102-1.923,6.41l-130.627,31.151   c1.538,0.769,3.077,1.41,4.615,2.179l124.602-29.74c-0.769,2.307-1.538,4.615-2.564,6.538l-112.937,26.92   c2.051,0.769,4.102,1.538,6.153,2.307l104.989-25.126c-1.282,2.436-2.564,4.871-3.974,7.435l-89.606,21.408   c1.41,0.385,2.692,0.769,4.102,1.154l84.094-19.998c-1.41,3.077-3.205,5.64-4.871,8.204l-64.48,15.383   c2.564,0.513,5.128,1.026,7.692,1.41l53.456-12.691c-0.641,1.282-1.41,1.923-2.179,2.82c-1.282,1.538-2.436,3.077-3.846,4.487   l-31.151,7.435c4.23,0.385,8.461,0.641,12.691,0.769l14.101-3.333c-1.154,1.154-2.307,2.307-3.461,3.333   c44.483-0.897,89.093-15.511,127.038-44.611C783.548,392.588,801.495,256.705,728.811,161.715z M549.983,317.724   c0.128,0.128,0.385,0.385,0.513,0.385l-1.026,0.256L549.983,317.724z M545.753,322.98l8.332-2.051   c0.385,0.513,0.641,0.385,0.897,0.641c1.795,1.41,3.461,3.077,5.128,4.359l-21.023,4.999L545.753,322.98z M535.497,335.671   l27.818-6.666c1.666,1.795,3.077,3.077,4.615,4.743l-38.329,9.102L535.497,335.671z M527.421,345.67l42.175-9.999   c1.538,1.795,3.077,3.589,4.615,5.384l-53.328,12.691L527.421,345.67z M517.166,358.361l59.353-14.229   c1.282,1.795,2.307,3.205,3.589,5.128l-68.839,16.409L517.166,358.361z M507.552,370.283l74.608-17.819   c1.026,1.41,2.051,3.333,2.948,4.615l-83.453,19.87L507.552,370.283z M498.707,380.923l87.811-21.023   c1.026,1.923,2.179,4.358,3.205,6.281l-98.451,23.459L498.707,380.923z M489.092,392.46l101.528-24.228   c1.026,2.436,1.795,4.358,2.564,6.41l-110.629,26.279L489.092,392.46z M478.837,405.023l115.372-27.561   c0.641,2.051,1.282,3.974,1.795,5.512L472.94,412.33L478.837,405.023z M470.761,415.022l125.884-29.997   c0.641,2.564,1.154,4.615,1.795,7.051l-134.858,32.176L470.761,415.022z M460.377,427.713l138.447-33.073   c0.385,2.051,0.769,4.102,1.026,5.64l-145.241,34.612L460.377,427.713z M450.891,439.763l149.343-35.637   c0.256,2.051,0.385,3.718,0.513,5.769L444.994,447.07L450.891,439.763z M434.739,459.633l7.307-9.23l158.958-37.945   c0.128,2.692,0.128,4.743,0.256,7.435L434.739,459.633z"/>
		<path style="fill:#EBF2FE;" d="M471.658,543.342l65.25-15.639c4.871-2.82,9.743-5.512,14.229-9.358l-96.528,23.075   C460.377,542.829,465.889,543.085,471.658,543.342z"/>
		<path style="fill:#EBF2FE;" d="M550.88,509.884L436.79,537.06c3.718,1.282,7.435,2.564,11.281,3.205l108.322-25.895   c1.795-1.41,3.461-2.948,5.128-4.615C558.059,510.012,554.47,510.012,550.88,509.884z"/>
		<path style="fill:#BED6FD;" d="M564.982,506.551l-14.101,3.333c3.589,0.128,7.051,0.128,10.64,0   C562.674,508.858,563.828,507.704,564.982,506.551z"/>
		<path style="fill:#EBF2FE;" d="M394.23,509.115l-1.666,2.051c1.282,1.154,2.564,2.564,3.846,3.333l81.402-19.485   c-3.077-1.154-6.025-2.436-8.973-3.718L394.23,509.115z"/>
		<path style="fill:#BED6FD;" d="M593.44,461.555l-124.602,29.741c2.948,1.282,6.025,2.564,8.973,3.718l112.937-26.92   C591.902,466.299,592.671,463.863,593.44,461.555z"/>
		<path style="fill:#EBF2FE;" d="M414.228,485.015l-7.435,8.717l45.38-10.768c-2.82-1.538-5.64-3.205-8.461-4.999L414.228,485.015z"/>
		<path style="fill:#BED6FD;" d="M599.209,440.917l-155.625,37.176c2.82,1.666,5.64,3.333,8.461,4.999l145.498-34.74   C598.183,445.916,598.696,443.096,599.209,440.917z"/>
		<path style="fill:#EBF2FE;" d="M403.845,497.706l-5.897,7.307l66.275-15.768c-2.692-1.282-5.384-2.564-7.948-3.974L403.845,497.706z   "/>
		<path style="fill:#BED6FD;" d="M596.773,451.685l-140.626,33.586c2.692,1.41,5.256,2.692,7.948,3.974l130.884-31.279   C595.491,455.659,596.132,453.479,596.773,451.685z"/>
		<path style="fill:#EBF2FE;" d="M399.999,517.447c2.179,1.666,4.487,3.205,6.794,4.871l88.709-21.152   c-3.846-1.154-7.691-2.307-11.409-3.718L399.999,517.447z"/>
		<path style="fill:#BED6FD;" d="M589.082,472.324l-104.989,25.126c3.846,1.41,7.563,2.564,11.409,3.718l89.606-21.408   C586.518,477.195,587.8,474.759,589.082,472.324z"/>
		<path style="fill:#BED6FD;" d="M554.983,321.698c-0.256-0.256-0.513-0.256-0.897-0.641l-8.332,2.051l-6.666,8.076l21.023-4.999   C558.572,324.775,556.777,323.108,554.983,321.698z"/>
		<path style="fill:#BED6FD;" d="M596.645,385.025l-125.884,29.997l-7.307,9.23l134.858-32.176   C597.799,389.64,597.286,387.589,596.645,385.025z"/>
		<path style="fill:#EBF2FE;" d="M422.048,531.035c2.82,1.41,5.769,2.948,8.717,3.846l107.425-25.638   c-5.384-0.513-10.896-1.154-16.28-2.051L422.048,531.035z"/>
		<path style="fill:#BED6FD;" d="M573.186,497.193c0.769-0.897,1.538-1.666,2.179-2.82l-53.456,12.691   c5.384,0.897,10.768,1.538,16.28,2.051l31.151-7.435C570.622,500.398,571.904,498.731,573.186,497.193z"/>
		<path style="fill:#BED6FD;" d="M549.983,317.724l-0.513,0.641l1.026-0.256C550.368,318.109,550.111,317.853,549.983,317.724z"/>
		<path style="fill:#EBF2FE;" d="M409.229,523.857c2.692,2.051,5.384,3.589,8.076,5.128l96.913-23.203   c-4.871-1.026-9.871-2.179-14.742-3.461L409.229,523.857z"/>
		<path style="fill:#BED6FD;" d="M583.569,482.194l-84.094,19.998c4.871,1.282,9.743,2.436,14.742,3.461l64.48-15.383   C580.493,487.835,582.159,485.271,583.569,482.194z"/>
		<path style="fill:#EBF2FE;" d="M422.304,475.016l-5.897,7.307l24.613-5.897c-2.179-1.41-4.358-2.82-6.538-4.358L422.304,475.016z"/>
		<path style="fill:#BED6FD;" d="M600.363,432.456l-165.88,39.611c2.179,1.538,4.359,2.948,6.538,4.358l158.573-37.817   C599.85,436.43,600.234,434.635,600.363,432.456z"/>
		<path style="fill:#BED6FD;" d="M582.159,352.464l-74.608,17.819l-6.025,6.794l83.453-19.87   C584.21,355.669,583.185,353.874,582.159,352.464z"/>
		<path style="fill:#BED6FD;" d="M569.597,335.543l-42.175,9.999l-6.666,8.076l53.328-12.691   C572.673,339.132,571.135,337.338,569.597,335.543z"/>
		<path style="fill:#BED6FD;" d="M576.519,344.132l-59.353,14.229l-5.897,7.307l68.839-16.409   C578.955,347.337,577.801,345.927,576.519,344.132z"/>
		<path style="fill:#BED6FD;" d="M586.518,360.028l-87.811,21.023l-7.435,8.717l98.451-23.459   C588.825,364.258,587.672,361.951,586.518,360.028z"/>
		<path style="fill:#BED6FD;" d="M563.315,329.005l-27.818,6.666l-5.897,7.307l38.329-9.102   C566.392,332.082,564.982,330.8,563.315,329.005z"/>
		<path style="fill:#EBF2FE;" d="M425.894,470.401l4.615-1.154c-0.769-0.513-1.538-1.154-2.307-1.666L425.894,470.401z"/>
		<path style="fill:#BED6FD;" d="M601.132,422.072L432.56,462.325l-4.358,5.256c0.769,0.513,1.538,1.154,2.307,1.666l170.239-40.637   C600.875,426.431,601.003,424.252,601.132,422.072z"/>
		<path style="fill:#EBF2FE;" d="M520.755,535.394l-31.279,7.435C500.117,541.419,510.757,539.368,520.755,535.394z"/>
		<path style="fill:#BED6FD;" d="M600.363,403.997l-149.343,35.637l-5.897,7.307l155.753-37.176   C600.619,407.715,600.619,406.177,600.363,403.997z"/>
		<path style="fill:#BED6FD;" d="M442.046,450.403l-7.307,9.23l166.393-39.739c0-2.692,0-4.871-0.256-7.435L442.046,450.403z"/>
		<path style="fill:#BED6FD;" d="M594.209,377.59l-115.373,27.561l-5.897,7.307l123.064-29.356   C595.491,381.564,594.978,379.513,594.209,377.59z"/>
		<path style="fill:#BED6FD;" d="M598.824,394.768l-138.447,33.073l-5.897,7.307l145.241-34.612   C599.593,398.87,599.209,396.819,598.824,394.768z"/>
		<path style="fill:#BED6FD;" d="M590.62,368.232L489.092,392.46l-6.538,8.589l110.501-26.408   C592.415,372.59,591.645,370.668,590.62,368.232z"/>
		<path
			style="fill:#EEEEEE;"
			d="M663.305,229.785h3.846v8.973h-3.846V229.785z M663.305,306.7h3.846v10.255h-3.846V306.7z    M656.895,209.274h5.128v10.255h-5.128V209.274z M656.895,286.189h5.128v10.255h-5.128V286.189z M650.485,190.045h5.128v8.973   h-5.128V190.045z M650.485,266.96h5.128v10.255h-5.128V266.96z M650.485,346.439h5.128v10.255h-5.128V346.439z M641.512,169.535   h5.128v10.255h-5.128V169.535z M641.512,249.014h5.128v10.255h-5.128V249.014z M641.512,325.929h5.128v10.255h-5.128V325.929z    M635.102,229.785h3.846v8.973h-3.846V229.785z M635.102,306.7h3.846v10.255h-3.846V306.7z M628.693,209.274h3.846v10.255h-3.846   V209.274z M628.693,286.189h3.846v10.255h-3.846V286.189z M628.693,365.668h3.846v8.973h-3.846V365.668z M621.001,190.045h3.846   v8.973h-3.846V190.045z M621.001,266.96h3.846v10.255h-3.846V266.96z M621.001,346.439h3.846v10.255h-3.846V346.439z    M612.028,169.535h5.128v10.255h-5.128V169.535z M612.028,249.014h5.128v10.255h-5.128V249.014z M612.028,325.929h5.128v10.255   h-5.128V325.929z M612.028,405.407h5.128v8.973h-5.128V405.407z M605.618,151.588h5.128v7.692h-5.128V151.588z M605.618,229.785   h5.128v8.973h-5.128V229.785z M605.618,306.7h5.128v10.255h-5.128V306.7z M605.618,386.179h5.128v8.973h-5.128V386.179z    M599.209,131.077h3.846v8.973h-3.846V131.077z M599.209,209.274h3.846v10.255h-3.846V209.274z M599.209,286.189h3.846v10.255   h-3.846V286.189z M599.209,365.668h3.846v8.973h-3.846V365.668z M591.517,111.849h5.128v8.973h-5.128V111.849z M591.517,190.045   h5.128v8.973h-5.128V190.045z M591.517,266.96h5.128v10.255h-5.128V266.96z M591.517,346.439h5.128v10.255h-5.128V346.439z    M591.517,425.918h5.128v8.973h-5.128V425.918z M583.826,169.535h5.128v10.255h-5.128V169.535z M583.826,249.014h5.128v10.255   h-5.128V249.014z M583.826,325.929h5.128v10.255h-5.128V325.929z M583.826,405.407h5.128v8.973h-5.128V405.407z M577.416,151.588   h3.846v7.692h-3.846V151.588z M577.416,229.785h3.846v8.973h-3.846V229.785z M577.416,306.7h3.846v10.255h-3.846V306.7z    M577.416,386.179h3.846v8.973h-3.846V386.179z M569.725,131.077h5.128v8.973h-5.128V131.077z M569.725,209.274h5.128v10.255h-5.128   V209.274z M569.725,286.189h5.128v10.255h-5.128V286.189z M569.725,365.668h5.128v8.973h-5.128V365.668z M563.315,111.849h5.128   v8.973h-5.128V111.849z M563.315,190.045h5.128v8.973h-5.128V190.045z M563.315,266.96h5.128v10.255h-5.128V266.96z    M563.315,346.439h5.128v10.255h-5.128V346.439z M563.315,425.918h5.128v8.973h-5.128V425.918z M554.342,91.338h5.128v8.973h-5.128   V91.338z M554.342,169.535h5.128v10.255h-5.128V169.535z M554.342,249.014h5.128v10.255h-5.128V249.014z M554.342,325.929h5.128   v10.255h-5.128V325.929z M554.342,405.407h5.128v8.973h-5.128V405.407z M547.932,151.588h3.846v7.692h-3.846V151.588z    M547.932,229.785h3.846v8.973h-3.846V229.785z M547.932,306.7h3.846v10.255h-3.846V306.7z M547.932,386.179h3.846v8.973h-3.846   V386.179z M541.523,131.077h3.846v8.973h-3.846V131.077z M541.523,209.274h3.846v10.255h-3.846V209.274z M541.523,286.189h3.846   v10.255h-3.846V286.189z M541.523,365.668h3.846v8.973h-3.846V365.668z M541.523,445.147h3.846v8.973h-3.846V445.147z    M533.831,111.849h5.128v8.973h-5.128V111.849z M533.831,190.045h5.128v8.973h-5.128V190.045z M533.831,266.96h5.128v10.255h-5.128   V266.96z M533.831,346.439h5.128v10.255h-5.128V346.439z M533.831,425.918h5.128v8.973h-5.128V425.918z M526.14,91.338h3.846v8.973   h-3.846V91.338z M526.14,169.535h3.846v10.255h-3.846V169.535z M526.14,249.014h3.846v10.255h-3.846V249.014z M526.14,325.929h3.846   v10.255h-3.846V325.929z M526.14,405.407h3.846v8.973h-3.846V405.407z M518.448,72.109h5.128v8.973h-5.128V72.109z M518.448,151.588   h5.128v7.692h-5.128V151.588z M518.448,229.785h5.128v8.973h-5.128V229.785z M518.448,306.7h5.128v10.255h-5.128V306.7z    M518.448,386.179h5.128v8.973h-5.128V386.179z M518.448,465.658h5.128v8.973h-5.128V465.658z M512.038,131.077h5.128v8.973h-5.128   V131.077z M512.038,209.274h5.128v10.255h-5.128V209.274z M512.038,286.189h5.128v10.255h-5.128V286.189z M512.038,365.668h5.128   v8.973h-5.128V365.668z M512.038,445.147h5.128v8.973h-5.128V445.147z M505.629,111.849h3.846v8.973h-3.846V111.849z    M505.629,190.045h3.846v8.973h-3.846V190.045z M505.629,266.96h3.846v10.255h-3.846V266.96z M505.629,346.439h3.846v10.255h-3.846   V346.439z M505.629,425.918h3.846v8.973h-3.846V425.918z M496.655,91.338h5.128v8.973h-5.128V91.338z M496.655,169.535h5.128v10.255   h-5.128V169.535z M496.655,249.014h5.128v10.255h-5.128V249.014z M496.655,325.929h5.128v10.255h-5.128V325.929z M496.655,405.407   h5.128v8.973h-5.128V405.407z M488.964,72.109h6.41v8.973h-6.41V72.109z M488.964,151.588h6.41v7.692h-6.41V151.588z    M488.964,229.785h6.41v8.973h-6.41V229.785z M488.964,306.7h6.41v10.255h-6.41V306.7z M488.964,386.179h6.41v8.973h-6.41V386.179z    M488.964,465.658h6.41v8.973h-6.41V465.658z M482.554,131.077h5.128v8.973h-5.128V131.077z M482.554,209.274h5.128v10.255h-5.128   V209.274z M482.554,286.189h5.128v10.255h-5.128V286.189z M482.554,365.668h5.128v8.973h-5.128V365.668z M482.554,445.147h5.128   v8.973h-5.128V445.147z M476.145,111.849h5.128v8.973h-5.128V111.849z M476.145,190.045h5.128v8.973h-5.128V190.045z    M476.145,266.96h5.128v10.255h-5.128V266.96z M476.145,346.439h5.128v10.255h-5.128V346.439z M476.145,425.918h5.128v8.973h-5.128   V425.918z M468.453,91.338h3.846v8.973h-3.846V91.338z M468.453,169.535h3.846v10.255h-3.846V169.535z M468.453,249.014h3.846   v10.255h-3.846V249.014z M468.453,325.929h3.846v10.255h-3.846V325.929z M468.453,405.407h3.846v8.973h-3.846V405.407z    M231.299,238.758h-3.846v-8.973h3.846V238.758z M238.99,336.184h-3.846v-10.255h3.846V336.184z M238.99,259.269h-3.846v-10.255   h3.846V259.269z M246.682,356.695h-3.846v-10.255h3.846V356.695z M246.682,277.216h-3.846V266.96h3.846V277.216z M246.682,199.019   h-3.846v-8.973h3.846V199.019z M254.373,374.641h-3.846v-8.973h3.846V374.641z M254.373,296.445h-3.846v-10.255h3.846V296.445z    M254.373,219.53h-3.846v-10.255h3.846V219.53z M260.783,316.955h-5.128V306.7h5.128V316.955z M260.783,238.758h-5.128v-8.973h5.128   V238.758z M267.192,336.184h-3.846v-10.255h3.846V336.184z M267.192,259.269h-3.846v-10.255h3.846V259.269z M267.192,179.79h-3.846   v-10.255h3.846V179.79z M276.166,356.695h-5.128v-10.255h5.128V356.695z M276.166,277.216h-5.128V266.96h5.128V277.216z    M276.166,199.019h-5.128v-8.973h5.128V199.019z M283.857,374.641h-5.128v-8.973h5.128V374.641z M283.857,296.445h-5.128v-10.255   h5.128V296.445z M283.857,219.53h-5.128v-10.255h5.128V219.53z M283.857,140.051h-5.128v-8.973h5.128V140.051z M290.267,395.152   h-5.128v-8.973h5.128V395.152z M290.267,316.955h-5.128V306.7h5.128V316.955z M290.267,238.758h-5.128v-8.973h5.128V238.758z    M290.267,159.279h-5.128v-7.692h5.128V159.279z M296.676,414.381h-3.846v-8.973h3.846V414.381z M296.676,336.184h-3.846v-10.255   h3.846V336.184z M296.676,259.269h-3.846v-10.255h3.846V259.269z M296.676,179.79h-3.846v-10.255h3.846V179.79z M305.65,434.892   h-5.128v-8.973h5.128V434.892z M305.65,356.695h-5.128v-10.255h5.128V356.695z M305.65,277.216h-5.128V266.96h5.128V277.216z    M305.65,199.019h-5.128v-8.973h5.128V199.019z M305.65,120.822h-5.128v-8.973h5.128V120.822z M312.059,374.641h-5.128v-8.973h5.128   V374.641z M312.059,296.445h-5.128v-10.255h5.128V296.445z M312.059,219.53h-5.128v-10.255h5.128V219.53z M312.059,140.051h-5.128   v-8.973h5.128V140.051z M318.469,395.152h-5.128v-8.973h5.128V395.152z M318.469,316.955h-5.128V306.7h5.128V316.955z    M318.469,238.758h-5.128v-8.973h5.128V238.758z M318.469,159.279h-5.128v-7.692h5.128V159.279z M326.16,414.381h-5.128v-8.973   h5.128V414.381z M326.16,336.184h-5.128v-10.255h5.128V336.184z M326.16,259.269h-5.128v-10.255h5.128V259.269z M326.16,179.79   h-5.128v-10.255h5.128V179.79z M326.16,100.311h-5.128v-8.973h5.128V100.311z M333.852,434.892h-3.846v-8.973h3.846V434.892z    M333.852,356.695h-3.846v-10.255h3.846V356.695z M333.852,277.216h-3.846V266.96h3.846V277.216z M333.852,199.019h-3.846v-8.973   h3.846V199.019z M333.852,120.822h-3.846v-8.973h3.846V120.822z M341.543,454.12h-5.128v-8.973h5.128V454.12z M341.543,374.641   h-5.128v-8.973h5.128V374.641z M341.543,296.445h-5.128v-10.255h5.128V296.445z M341.543,219.53h-5.128v-10.255h5.128V219.53z    M341.543,140.051h-5.128v-8.973h5.128V140.051z M347.953,395.152h-3.846v-8.973h3.846V395.152z M347.953,316.955h-3.846V306.7   h3.846V316.955z M347.953,238.758h-3.846v-8.973h3.846V238.758z M347.953,159.279h-3.846v-7.692h3.846V159.279z M354.363,414.381   h-3.846v-8.973h3.846V414.381z M354.363,336.184h-3.846v-10.255h3.846V336.184z M354.363,259.269h-3.846v-10.255h3.846V259.269z    M354.363,179.79h-3.846v-10.255h3.846V179.79z M354.363,100.311h-3.846v-8.973h3.846V100.311z M363.336,434.892h-5.128v-8.973   h5.128V434.892z M363.336,356.695h-5.128v-10.255h5.128V356.695z M363.336,277.216h-5.128V266.96h5.128V277.216z M363.336,199.019   h-5.128v-8.973h5.128V199.019z M363.336,120.822h-5.128v-8.973h5.128V120.822z M369.746,454.12h-5.128v-8.973h5.128V454.12z    M369.746,374.641h-5.128v-8.973h5.128V374.641z M369.746,296.445h-5.128v-10.255h5.128V296.445z M369.746,219.53h-5.128v-10.255   h5.128V219.53z M369.746,140.051h-5.128v-8.973h5.128V140.051z M376.155,474.631h-3.846v-8.973h3.846V474.631z M376.155,395.152   h-3.846v-8.973h3.846V395.152z M376.155,316.955h-3.846V306.7h3.846V316.955z M376.155,238.758h-3.846v-8.973h3.846V238.758z    M376.155,159.279h-3.846v-7.692h3.846V159.279z M376.155,81.083h-3.846v-8.973h3.846V81.083z M383.847,414.381h-5.128v-8.973h5.128   V414.381z M383.847,336.184h-5.128v-10.255h5.128V336.184z M383.847,259.269h-5.128v-10.255h5.128V259.269z M383.847,179.79h-5.128   v-10.255h5.128V179.79z M383.847,100.311h-5.128v-8.973h5.128V100.311z M392.82,434.892h-5.128v-8.973h5.128V434.892z    M392.82,356.695h-5.128v-10.255h5.128V356.695z M392.82,277.216h-5.128V266.96h5.128V277.216z M392.82,199.019h-5.128v-8.973h5.128   V199.019z M392.82,120.822h-5.128v-8.973h5.128V120.822z M399.23,454.12h-5.128v-8.973h5.128V454.12z M399.23,374.641h-5.128v-8.973   h5.128V374.641z M399.23,296.445h-5.128v-10.255h5.128V296.445z M399.23,219.53h-5.128v-10.255h5.128V219.53z M399.23,140.051   h-5.128v-8.973h5.128V140.051z M405.639,474.631h-5.128v-8.973h5.128V474.631z M405.639,395.152h-5.128v-8.973h5.128V395.152z    M405.639,316.955h-5.128V306.7h5.128V316.955z M405.639,238.758h-5.128v-8.973h5.128V238.758z M405.639,159.279h-5.128v-7.692   h5.128V159.279z M405.639,81.083h-5.128v-8.973h5.128V81.083z M413.331,414.381h-5.128v-8.973h5.128V414.381z M413.331,336.184   h-5.128v-10.255h5.128V336.184z M413.331,259.269h-5.128v-10.255h5.128V259.269z M413.331,179.79h-5.128v-10.255h5.128V179.79z    M413.331,100.311h-5.128v-8.973h5.128V100.311z M421.022,434.892h-3.846v-8.973h3.846V434.892z M421.022,356.695h-3.846v-10.255   h3.846V356.695z M421.022,277.216h-3.846V266.96h3.846V277.216z M421.022,199.019h-3.846v-8.973h3.846V199.019z M421.022,120.822   h-3.846v-8.973h3.846V120.822z M428.714,454.12h-5.128v-8.973h5.128V454.12z M428.714,374.641h-5.128v-8.973h5.128V374.641z    M428.714,296.445h-5.128v-10.255h5.128V296.445z M428.714,219.53h-5.128v-10.255h5.128V219.53z M428.714,140.051h-5.128v-8.973   h5.128V140.051z M435.123,474.631h-5.128v-8.973h5.128V474.631z M435.123,395.152h-5.128v-8.973h5.128V395.152z M435.123,316.955   h-5.128V306.7h5.128V316.955z M435.123,238.758h-5.128v-8.973h5.128V238.758z M435.123,159.279h-5.128v-7.692h5.128V159.279z    M435.123,81.083h-5.128v-8.973h5.128V81.083z M441.533,414.381h-5.128v-8.973h5.128V414.381z M441.533,336.184h-5.128v-10.255   h5.128V336.184z M441.533,259.269h-5.128v-10.255h5.128V259.269z M441.533,179.79h-5.128v-10.255h5.128V179.79z M441.533,100.311   h-5.128v-8.973h5.128V100.311z M451.788,434.892h-5.128v-8.973h5.128V434.892z M451.788,356.695h-5.128v-10.255h5.128V356.695z    M451.788,277.216h-5.128V266.96h5.128V277.216z M451.788,199.019h-5.128v-8.973h5.128V199.019z M451.788,120.822h-5.128v-8.973   h5.128V120.822z M459.48,454.12h-5.128v-8.973h5.128V454.12z M459.48,374.641h-5.128v-8.973h5.128V374.641z M459.48,296.445h-5.128   v-10.255h5.128V296.445z M459.48,219.53h-5.128v-10.255h5.128V219.53z M459.48,140.051h-5.128v-8.973h5.128V140.051z M459.48,60.572   h-5.128v-8.973h5.128V60.572z M465.889,474.631h-5.128v-8.973h5.128V474.631z M465.889,395.152h-5.128v-8.973h5.128V395.152z    M465.889,316.955h-5.128V306.7h5.128V316.955z M465.889,238.758h-5.128v-8.973h5.128V238.758z M465.889,159.279h-5.128v-7.692   h5.128V159.279z M460.762,81.083v-8.973h5.128v8.973H460.762z"/>
		<g>
			<polygon style="fill:#FFFFFF;" points="250.527,132.359 232.581,132.359 232.581,212.607 250.527,230.298  "/>
			<polygon style="fill:#FFFFFF;" points="217.198,132.359 199.251,132.359 199.251,179.79 217.198,197.481  "/>
			<polygon style="fill:#FFFFFF;" points="183.868,132.359 167.203,132.359 167.203,146.973 183.868,164.663  "/>
			<polygon style="fill:#FFFFFF;" points="314.623,132.359 297.958,132.359 297.958,278.241 314.623,295.291  "/>
			<polygon style="fill:#FFFFFF;" points="330.006,310.289 345.389,325.416 345.389,132.359 330.006,132.359  "/>
			<polygon style="fill:#FFFFFF;" points="282.575,132.359 264.628,132.359 264.628,245.424 282.575,263.115  "/>
		</g>
	</g>
</svg>
