<?xml version="1.0" standalone="no"?>
<!DOCTYPE svg PUBLIC "-//W3C//DTD SVG 20010904//EN"
 "http://www.w3.org/TR/2001/REC-SVG-20010904/DTD/svg10.dtd">
<svg version="1.0" xmlns="http://www.w3.org/2000/svg"
 width="1080.000000pt" height="609.000000pt" viewBox="0 0 1080.000000 609.000000"
 preserveAspectRatio="xMidYMid meet">
<metadata>
Created by potrace 1.15, written by Peter Selinger 2001-2017
</metadata>
<g transform="translate(0.000000,609.000000) scale(0.100000,-0.100000)"
fill="#000000" stroke="none">
<path d="M1224 5873 c-51 -29 -59 -37 -86 -73 -53 -72 -45 -189 18 -254 19
-20 39 -36 44 -36 6 0 10 -86 10 -215 l0 -215 -240 0 -240 0 0 -730 0 -730
1795 0 c987 0 1795 3 1796 8 3 25 4 1429 1 1440 -3 9 -60 12 -237 12 -203 0
-234 2 -239 16 -3 9 -6 101 -6 206 l0 189 40 36 c53 48 74 106 67 184 -6 73
-39 120 -108 157 -62 34 -160 28 -213 -13 -57 -43 -77 -79 -83 -144 -7 -77 9
-122 63 -178 l44 -45 0 -191 c0 -106 -4 -198 -8 -205 -7 -10 -237 -12 -1118
-10 l-1109 3 -3 204 -2 203 44 48 c27 29 49 64 56 91 25 93 -20 195 -104 238
-54 26 -139 28 -182 4z m484 -1313 c110 -49 176 -154 174 -277 -2 -111 -48
-188 -150 -254 -88 -56 -237 -46 -324 22 -85 67 -118 130 -119 231 -3 223 216
367 419 278z m1865 9 c76 -25 146 -89 178 -163 33 -74 31 -173 -4 -242 -39
-77 -108 -137 -180 -159 -85 -25 -150 -20 -220 18 -79 42 -100 61 -137 131
-25 49 -30 69 -30 131 0 144 83 255 220 291 65 18 103 17 173 -7z"/>
<path d="M903 3463 c5 -28 106 -309 132 -368 11 -25 68 -184 80 -223 4 -10
291 -12 1411 -10 l1407 3 59 155 c128 341 168 454 160 462 -5 5 -125 7 -268 6
l-259 -3 -38 -72 -38 -73 -219 0 -219 0 -3 68 -3 67 -577 3 -577 2 -3 -67 -3
-68 -221 -3 -220 -2 -25 52 c-13 28 -32 62 -42 75 l-18 23 -261 0 -260 0 5
-27z"/>
<path d="M2372 2748 l3 -23 210 0 210 0 3 23 3 22 -216 0 -216 0 3 -22z"/>
<path d="M2567 2703 l-228 -3 3 -23 c3 -22 3 -22 239 -25 212 -2 237 -1 243
14 6 16 -10 46 -23 42 -3 -2 -109 -4 -234 -5z"/>
<path d="M5332 2624 c-90 -16 -186 -60 -229 -104 -53 -55 -94 -155 -112 -277
-14 -91 -14 -547 -1 -633 36 -229 127 -334 323 -374 90 -19 451 -22 556 -5
166 26 277 112 319 245 35 112 42 185 42 454 0 375 -27 497 -132 597 -44 42
-136 82 -228 99 -98 17 -439 17 -538 -2z m438 -334 c70 -36 74 -56 75 -355 0
-338 -7 -361 -125 -386 -66 -14 -238 -6 -277 13 -71 35 -87 114 -81 412 5 248
12 279 73 313 36 20 54 23 168 23 109 0 134 -3 167 -20z"/>
<path d="M6777 2624 c-190 -35 -281 -124 -327 -319 -20 -81 -21 -110 -18 -404
3 -258 7 -327 21 -373 52 -178 133 -253 313 -294 60 -13 114 -15 286 -12 190
4 220 7 278 27 171 60 253 189 267 418 l6 103 -191 0 -192 0 0 -42 c0 -105
-41 -161 -130 -178 -69 -14 -166 -4 -206 21 -53 32 -59 71 -59 364 0 240 2
263 20 300 30 58 64 73 168 74 138 1 179 -24 199 -125 6 -32 16 -62 22 -66 12
-8 311 -10 339 -2 38 11 12 227 -41 330 -51 101 -134 153 -287 180 -102 18
-364 17 -468 -2z"/>
<path d="M2317 2623 c-2 -5 -3 -17 -3 -28 1 -19 9 -20 261 -23 143 -1 265 0
271 2 7 2 9 16 7 30 l-5 26 -264 0 c-144 0 -265 -3 -267 -7z"/>
<path d="M432 1928 l3 -693 180 0 180 0 6 200 c3 110 6 201 7 203 6 8 241 0
278 -9 72 -18 78 -35 84 -229 l5 -165 185 0 185 0 0 200 c0 200 0 200 -27 241
-43 67 -93 101 -170 118 -39 9 -35 22 10 36 70 22 129 70 159 130 28 54 28 58
28 235 0 174 -1 182 -26 236 -42 90 -86 123 -209 160 -71 21 -96 23 -478 27
l-402 4 2 -694z m705 349 c27 -26 28 -32 31 -140 3 -108 3 -113 -21 -139 -13
-14 -42 -31 -63 -37 -54 -15 -257 -14 -272 1 -13 13 -18 329 -5 342 4 4 74 6
155 4 146 -3 148 -3 175 -31z"/>
<path d="M3640 1926 l0 -696 348 0 c385 1 499 8 599 40 75 24 95 37 136 91 43
57 57 119 57 259 0 100 -4 133 -19 166 -25 54 -85 109 -148 136 -29 12 -53 25
-53 29 0 5 17 13 38 19 114 31 162 115 162 282 0 194 -49 284 -185 336 l-70
26 -432 4 -433 3 0 -695z m702 374 c33 -15 43 -54 36 -136 -7 -88 -11 -89
-204 -89 l-165 0 -1 114 c-1 103 1 116 18 123 30 12 285 3 316 -12z m37 -529
c17 -20 21 -37 21 -97 0 -63 -3 -77 -24 -101 l-24 -28 -171 -3 -171 -4 0 132
0 131 174 -3 c170 -3 175 -4 195 -27z"/>
<path d="M7828 1938 c-2 -382 1 -689 6 -696 7 -9 120 -12 530 -10 l521 3 3
144 c1 80 -1 148 -6 153 -5 5 -159 10 -343 11 l-334 2 -3 128 -3 127 319 0
c244 0 322 3 329 13 5 6 9 66 8 132 l-2 120 -324 5 -324 5 0 115 0 115 330 5
330 5 3 153 3 152 -520 0 -520 0 -3 -682z"/>
<path d="M9140 1941 c0 -374 3 -686 6 -695 5 -14 31 -16 178 -16 120 0 176 4
184 12 9 9 12 85 12 281 0 195 3 268 11 265 15 -5 35 -34 219 -313 84 -126
157 -233 164 -237 18 -12 446 -10 446 2 0 6 -55 88 -122 183 -67 94 -160 226
-207 292 -46 66 -101 143 -123 172 -21 29 -38 55 -38 60 0 6 92 143 341 508
l109 160 -217 3 c-119 1 -221 -2 -226 -7 -4 -4 -73 -109 -152 -232 -79 -123
-149 -229 -155 -236 -5 -7 -10 -16 -10 -22 0 -11 -26 -22 -34 -14 -3 4 -6 120
-6 260 l0 253 -190 0 -190 0 0 -679z"/>
<path d="M2326 2542 c-3 -5 1 -19 7 -33 7 -13 19 -40 27 -59 7 -19 22 -54 32
-77 l18 -43 178 0 177 0 19 43 c10 23 25 60 34 82 8 22 19 44 24 50 4 5 8 17
8 27 0 17 -16 18 -259 18 -143 0 -262 -4 -265 -8z"/>
<path d="M2265 2226 c-76 -15 -173 -49 -218 -77 -135 -82 -217 -250 -247 -507
-18 -149 -7 -932 13 -1032 51 -247 137 -368 317 -440 107 -44 196 -53 490 -48
297 4 355 14 465 75 144 82 204 181 257 423 22 100 23 125 23 545 0 448 -3
500 -42 655 -53 215 -170 337 -378 395 -83 23 -576 31 -680 11z m488 -492 c68
-23 101 -68 117 -157 17 -102 25 -547 12 -690 -20 -208 -42 -245 -169 -273
-56 -12 -102 -15 -172 -11 -123 6 -174 22 -211 63 -49 57 -55 109 -55 519 0
331 2 376 18 430 23 74 30 83 92 111 45 21 65 24 186 24 98 0 148 -4 182 -16z"/>
</g>
</svg>
