<?xml version="1.0" encoding="UTF-8"?>
<svg xmlns="http://www.w3.org/2000/svg" xmlns:xlink="http://www.w3.org/1999/xlink" width="125pt" height="94pt" viewBox="0 0 125 94" version="1.1">
<g id="surface1">
<path style=" stroke:none;fill-rule:nonzero;fill:rgb(0%,0%,0%);fill-opacity:1;" d="M 24.003906 2.800781 C 21.347656 3.800781 19.824219 5.972656 19.882812 8.753906 C 19.902344 10.652344 20.839844 12.355469 22.617188 13.746094 C 23.046875 14.101562 23.046875 14.140625 23.046875 20.054688 C 23.046875 25.515625 23.027344 26.007812 22.714844 26.125 C 22.519531 26.203125 19.433594 26.242188 15.820312 26.222656 L 9.277344 26.183594 L 9.21875 47.46875 L 9.179688 68.738281 L 61.171875 68.699219 L 113.183594 68.640625 L 113.242188 47.429688 C 113.28125 27.339844 113.261719 26.242188 112.949219 26.242188 C 112.753906 26.222656 109.6875 26.242188 106.113281 26.242188 C 102.558594 26.242188 99.589844 26.183594 99.53125 26.085938 C 99.472656 25.988281 99.414062 23.265625 99.394531 20.035156 L 99.375 14.140625 L 100.527344 12.984375 C 102.03125 11.515625 102.617188 10.105469 102.480469 8.226562 C 102.382812 6.640625 101.835938 5.425781 100.761719 4.347656 C 99.433594 3.035156 98.4375 2.644531 96.484375 2.644531 C 94.570312 2.644531 93.398438 3.09375 92.1875 4.308594 C 90.996094 5.503906 90.527344 6.699219 90.527344 8.519531 C 90.527344 10.789062 91.25 12.199219 93.144531 13.667969 L 93.59375 14.023438 L 93.574219 19.976562 C 93.554688 23.246094 93.476562 26.007812 93.398438 26.085938 C 93.320312 26.164062 78.75 26.222656 61.015625 26.203125 L 28.808594 26.144531 L 28.75 20.132812 L 28.710938 14.101562 L 29.21875 13.667969 C 30.351562 12.710938 30.917969 12.003906 31.386719 11.003906 C 32.714844 8.207031 31.445312 4.621094 28.632812 3.191406 C 27.421875 2.566406 25.136719 2.390625 24.003906 2.800781 Z M 35.742188 40.753906 C 38.359375 41.359375 40.898438 43.496094 41.875 45.921875 C 43.203125 49.273438 42.519531 52.71875 39.960938 55.324219 C 37.285156 58.066406 33.4375 58.710938 29.980469 57.007812 C 25.78125 54.929688 24.003906 49.703125 26.054688 45.511719 C 26.933594 43.730469 27.421875 43.140625 28.808594 42.203125 C 30.878906 40.773438 33.476562 40.222656 35.742188 40.753906 Z M 90.46875 40.753906 C 93.925781 41.496094 96.757812 44.511719 97.246094 48 C 97.96875 53.304688 93.867188 57.964844 88.457031 57.964844 C 87.226562 57.964844 84.804688 57.164062 83.691406 56.398438 C 79.257812 53.34375 78.769531 46.53125 82.714844 42.925781 C 84.902344 40.910156 87.617188 40.144531 90.46875 40.753906 Z M 90.46875 40.753906 "/>
<path style=" stroke:none;fill-rule:nonzero;fill:rgb(0%,0%,0%);fill-opacity:1;" d="M 13.867188 72.890625 C 13.867188 73.085938 18.808594 86.558594 20 89.59375 L 20.46875 90.769531 L 101.835938 90.769531 L 102.089844 90.277344 C 102.226562 90.003906 102.65625 88.910156 103.027344 87.832031 C 103.417969 86.753906 103.847656 85.558594 104.003906 85.1875 C 104.511719 83.953125 108.59375 72.910156 108.59375 72.773438 C 108.59375 72.714844 105.078125 72.652344 100.800781 72.652344 L 93.007812 72.652344 L 91.875 74.75 L 90.722656 76.863281 L 78.027344 76.863281 L 77.832031 72.753906 L 44.433594 72.753906 L 44.375 74.847656 L 44.316406 76.960938 L 31.640625 76.960938 L 30.839844 75.335938 C 30.390625 74.457031 29.863281 73.496094 29.648438 73.183594 L 29.277344 72.652344 L 21.5625 72.652344 C 15.820312 72.652344 13.867188 72.714844 13.867188 72.890625 Z M 13.867188 72.890625 "/>
</g>
</svg>
