<?xml version="1.0" encoding="iso-8859-1" ?>
<svg version="1.1" xmlns="http://www.w3.org/2000/svg" xmlns:xlink="http://www.w3.org/1999/xlink" viewBox="0 0 643.9024390243903 880" width="540" height="770">
	<g transform="translate(17.36 12.59) scale(2.079 2.077) rotate(0 149.99037999037998 204.9638902262879)">
		<linearGradient id="SVGID_1_" gradientUnits="userSpaceOnUse" x1="92.1628" y1="31.8688" x2="191.5016" y2="31.8688" gradientTransform="matrix(1 0 0 -1 0 392)">
			<stop offset="0" style="stop-color:#EFEFEF"/>
			<stop offset="0.5538" style="stop-color:#D7D8D9"/>
		</linearGradient>
		<ellipse fill="url(#SVGID_1_)" cx="141.832" cy="360.131" rx="49.669" ry="49.869"/>
		<linearGradient id="SVGID_2_" gradientUnits="userSpaceOnUse" x1="64.3362" y1="471.1882" x2="83.9383" y2="471.1882" gradientTransform="matrix(0.9969 0.0787 0.0787 -0.9969 17.5825 507.5454)">
			<stop offset="0" style="stop-color:#FFB02A"/>
			<stop offset="1" style="stop-color:#FF9300"/>
		</linearGradient>
		<path fill="url(#SVGID_2_)" d="M129.244,35.067c-5.396-0.427-10.375,6.912-11.119,16.393l19.541,1.548   C138.41,43.528,134.64,35.496,129.244,35.067z"/>
		<rect x="122.889" y="39.935" transform="matrix(-0.9969 -0.079 0.079 -0.9969 247.2126 94.8617)" fill="#FFFFFF" width="5.189" height="5.209"/>
		<ellipse fill="#1B236D" cx="137.266" cy="250.37" rx="30.257" ry="30.378"/>
		<polygon fill="#1B236D" points="218.753,220.325 266.83,226.56 265.29,238.526 217.214,232.292 "/>
		<polygon fill="#1B236D" points="32.516,37.551 37.188,85.991 25.228,87.154 20.555,38.714 "/>
		<linearGradient id="SVGID_3_" gradientUnits="userSpaceOnUse" x1="135.7837" y1="65.1328" x2="234.2486" y2="65.1328" gradientTransform="matrix(0.996 -0.0899 -0.0899 -0.996 -46.0929 266.5071)">
			<stop offset="0" style="stop-color:#59d3e3"/>
			<stop offset="1" style="stop-color:#51b6c4"/>
		</linearGradient>
		<polygon fill="url(#SVGID_3_)" points="185.766,229.774 87.735,238.654 78.889,140.231 176.92,131.35 "/>
		<linearGradient id="SVGID_4_" gradientUnits="userSpaceOnUse" x1="45.4207" y1="433.1395" x2="105.2259" y2="433.1395" gradientTransform="matrix(0.9969 0.0787 0.0787 -0.9969 17.5825 507.5454)">
			<stop offset="0" style="stop-color:#59d3e3"/>
			<stop offset="1" style="stop-color:#51b6c4"/>
		</linearGradient>
		<polygon fill="url(#SVGID_4_)" points="154.208,113.956 94.61,109.234 99.313,49.397 158.911,54.119 "/>
		<radialGradient id="SVGID_5_" cx="310.3544" cy="5.9395" r="9.4676" gradientTransform="matrix(0.996 -0.0903 -0.0899 -1 -46.0929 267.5574)" gradientUnits="userSpaceOnUse">
			<stop offset="0" style="stop-color:#FF4945"/>
			<stop offset="1" style="stop-color:#F92424"/>
		</radialGradient>
		<ellipse fill="url(#SVGID_5_)" cx="262.461" cy="233.607" rx="9.48" ry="9.518"/>
		<radialGradient id="SVGID_6_" cx="-233.0699" cy="761.7791" r="9.4823" gradientTransform="matrix(0.9626 0.2721 0.271 -0.9665 45.1083 833.6573)" gradientUnits="userSpaceOnUse">
			<stop offset="0" style="stop-color:#FF4945"/>
			<stop offset="1" style="stop-color:#F92424"/>
		</radialGradient>
		<ellipse fill="url(#SVGID_6_)" cx="27.197" cy="34.01" rx="9.48" ry="9.518"/>
		<ellipse fill="#1B236D" cx="46.07" cy="392.905" rx="16.338" ry="16.404"/>
		<g>
			<path
				fill="#1B236D"
				d="M142.584,377.108c-9.342,0-16.943-7.631-16.943-17.011s7.601-17.011,16.943-17.011    c9.342,0,16.943,7.631,16.943,17.011S151.926,377.108,142.584,377.108z M142.584,347.947c-6.673,0-12.102,5.45-12.102,12.151    c0,6.7,5.429,12.151,12.102,12.151c6.673,0,12.102-5.45,12.102-12.151C154.685,353.397,149.257,347.947,142.584,347.947z"/>
		</g>
		<g>
			<path fill="#1B236D" d="M43.675,383.88l-3.682-3.157c26.687-31.373,60.82-43.995,101.457-37.518l-0.759,4.8    C101.284,341.723,69.552,353.459,43.675,383.88z"/>
		</g>
		<polygon fill="#5BABF2" points="106.053,68.9 117.08,69.774 116.209,80.845 105.183,79.971 "/>
		<polygon fill="#5BABF2" points="129.943,70.794 140.97,71.668 140.099,82.739 129.073,81.865 "/>
		<path fill="#5BABF2" d="M121.878,94.555c5.396,0.427,10.116-3.618,10.542-9.035l-19.541-1.548   C112.452,89.388,116.482,94.127,121.878,94.555z"/>
		<rect x="102.704" y="52.453" transform="matrix(-0.9969 -0.079 0.079 -0.9969 205.9163 118.2622)" fill="#1B236D" width="5.189" height="5.209"/>
		<rect x="150.304" y="56.226" transform="matrix(-0.9969 -0.079 0.079 -0.9969 300.6694 129.5574)" fill="#1B236D" width="5.189" height="5.209"/>
		<rect x="98.824" y="101.786" transform="matrix(-0.9969 -0.079 0.079 -0.9969 194.2714 216.468)" fill="#1B236D" width="5.189" height="5.209"/>
		<rect x="146.425" y="105.559" transform="matrix(-0.9969 -0.079 0.079 -0.9969 289.0266 227.7636)" fill="#1B236D" width="5.189" height="5.209"/>
		<polygon fill="#1B236D" points="133.012,225.166 139.393,224.587 139.969,230.994 133.588,231.572 "/>
		<polygon fill="#1B236D" points="89.617,229.099 95.998,228.52 96.574,234.927 90.193,235.505 "/>
		<polygon fill="#1B236D" points="176.407,221.232 182.788,220.654 183.364,227.061 176.983,227.639 "/>
		<g>
			<path
				fill="#1B236D"
				d="M111.492,135.583c-0.619,0-1.148-0.475-1.204-1.106c-0.06-0.668,0.431-1.259,1.097-1.319l26.639-2.413    c0.667-0.055,1.254,0.433,1.314,1.101c0.06,0.668-0.431,1.259-1.097,1.319l-26.639,2.413    C111.565,135.582,111.528,135.583,111.492,135.583z"/>
		</g>
		<g>
			<path
				fill="#1B236D"
				d="M110.982,129.444c-0.667,0-1.208-0.542-1.211-1.211c-0.002-0.671,0.537-1.218,1.206-1.22l26.807-0.095    c0.001,0,0.002,0,0.004,0c0.667,0,1.208,0.542,1.211,1.211c0.002,0.671-0.537,1.218-1.206,1.22l-26.807,0.095    C110.985,129.444,110.984,129.444,110.982,129.444z"/>
		</g>
		<g>
			<path
				fill="#1B236D"
				d="M110.643,125.702c-0.664,0-1.206-0.538-1.211-1.207c-0.004-0.671,0.534-1.219,1.202-1.223l26.803-0.174    c0.654,0.029,1.214,0.536,1.218,1.207c0.004,0.67-0.534,1.219-1.202,1.223l-26.803,0.174    C110.649,125.702,110.646,125.702,110.643,125.702z"/>
		</g>
		<g>
			<path
				fill="#1B236D"
				d="M137.104,121.707c-0.026,0-0.052,0-0.079-0.002l-27.476-1.788c-0.667-0.044-1.173-0.621-1.129-1.292    c0.043-0.669,0.59-1.187,1.287-1.134l27.476,1.788c0.667,0.044,1.173,0.621,1.129,1.292    C138.269,121.213,137.737,121.707,137.104,121.707z"/>
		</g>
		<g>
			<path
				fill="#1B236D"
				d="M128.08,296.96c-0.597,0-1.117-0.444-1.199-1.054c-0.089-0.665,0.377-1.276,1.04-1.365l25.715-3.446    c0.656-0.093,1.271,0.378,1.359,1.044c0.088,0.666-0.377,1.276-1.04,1.365l-25.715,3.446    C128.188,296.956,128.133,296.96,128.08,296.96z"/>
		</g>
		<g>
			<path
				fill="#1B236D"
				d="M128.08,293.124c-0.588,0-1.104-0.432-1.195-1.033c-0.1-0.663,0.355-1.283,1.016-1.383l24.979-3.793    c0.654-0.099,1.278,0.356,1.378,1.02c0.1,0.663-0.355,1.283-1.016,1.383l-24.979,3.793    C128.201,293.12,128.14,293.124,128.08,293.124z"/>
		</g>
		<g>
			<path
				fill="#1B236D"
				d="M128.08,289.287c-0.58,0-1.092-0.42-1.192-1.014c-0.112-0.662,0.333-1.288,0.992-1.4l24.489-4.141    c0.657-0.112,1.283,0.335,1.394,0.996c0.112,0.662-0.333,1.288-0.992,1.4l-24.489,4.141    C128.215,289.282,128.146,289.287,128.08,289.287z"/>
		</g>
		<g>
			<path
				fill="#1B236D"
				d="M128.08,285.451c-0.592,0-1.108-0.435-1.196-1.041c-0.097-0.664,0.362-1.281,1.024-1.377l25.715-3.75    c0.662-0.092,1.276,0.363,1.371,1.028c0.097,0.664-0.362,1.281-1.024,1.377l-25.715,3.75    C128.196,285.447,128.138,285.451,128.08,285.451z"/>
		</g>
		<g>
			<path fill="#1B236D" d="M154.829,312.352h-26.748c-0.669,0-1.211-0.544-1.211-1.215s0.542-1.215,1.211-1.215h26.748    c0.669,0,1.211,0.544,1.211,1.215S155.498,312.352,154.829,312.352z"/>
		</g>
		<g>
			<path
				fill="#1B236D"
				d="M128.08,308.515c-0.643,0-1.178-0.508-1.208-1.16c-0.03-0.67,0.486-1.238,1.154-1.27l26.696-1.219    c0.679-0.013,1.233,0.488,1.265,1.159c0.03,0.67-0.486,1.238-1.154,1.27l-26.696,1.219    C128.117,308.515,128.098,308.515,128.08,308.515z"/>
		</g>
		<g>
			<path
				fill="#1B236D"
				d="M128.08,304.679c-0.626,0-1.155-0.483-1.205-1.121c-0.052-0.669,0.446-1.254,1.112-1.306l26.205-2.058    c0.669-0.055,1.249,0.448,1.301,1.116c0.052,0.669-0.446,1.254-1.112,1.306l-26.205,2.058    C128.144,304.678,128.112,304.679,128.08,304.679z"/>
		</g>
		<g>
			<path
				fill="#1B236D"
				d="M128.08,300.842c-0.609,0-1.133-0.46-1.201-1.082c-0.073-0.667,0.406-1.268,1.07-1.341l26.205-2.898    c0.656-0.078,1.263,0.408,1.335,1.075c0.073,0.667-0.406,1.268-1.07,1.341l-26.205,2.898    C128.169,300.84,128.125,300.842,128.08,300.842z"/>
		</g>
		<g>
			<path
				fill="#1B236D"
				d="M136.76,117.887c-0.03,0-0.062-0.001-0.092-0.003l-26.793-2.049c-0.667-0.05-1.166-0.634-1.115-1.304    c0.051-0.669,0.631-1.175,1.298-1.119l26.793,2.049c0.667,0.05,1.166,0.634,1.115,1.304    C137.917,117.402,137.388,117.887,136.76,117.887z"/>
		</g>
		<g>
			<path
				fill="#1B236D"
				d="M136.417,114.065c-0.029,0-0.06-0.001-0.09-0.003l-26.789-1.97c-0.667-0.049-1.167-0.631-1.118-1.3    c0.049-0.669,0.621-1.17,1.295-1.123l26.789,1.97c0.667,0.049,1.167,0.631,1.118,1.3    C137.576,113.578,137.044,114.065,136.417,114.065z"/>
		</g>
		<polygon fill="#1B236D" points="193.632,145.1 220.065,214.746 202.868,221.326 176.435,151.68 "/>
		<polygon fill="#1B236D" points="37.136,86.483 79.269,147.842 64.118,158.329 21.986,96.97 "/>
		<radialGradient id="SVGID_7_" cx="238.7314" cy="96.9075" r="21.7843" gradientTransform="matrix(0.996 -0.0903 -0.0899 -1 -46.0929 267.5574)" gradientUnits="userSpaceOnUse">
			<stop offset="0" style="stop-color:#FF4945"/>
			<stop offset="1" style="stop-color:#F92424"/>
		</radialGradient>
		<ellipse fill="url(#SVGID_7_)" cx="182.972" cy="149.102" rx="21.784" ry="21.871"/>
		<radialGradient id="SVGID_8_" cx="134.5117" cy="96.9108" r="21.7843" gradientTransform="matrix(0.996 -0.0903 -0.0899 -1 -46.0929 267.5574)" gradientUnits="userSpaceOnUse">
			<stop offset="0" style="stop-color:#FF4945"/>
			<stop offset="1" style="stop-color:#F92424"/>
		</radialGradient>
		<ellipse fill="url(#SVGID_8_)" cx="79.168" cy="158.505" rx="21.784" ry="21.871"/>
		<g>
			<path
				fill="#1B236D"
				d="M278.378,233.963c-0.405,0-0.801-0.205-1.03-0.577c-0.351-0.57-0.175-1.319,0.393-1.672l13.812-8.572    c0.567-0.353,1.314-0.178,1.665,0.395c0.351,0.57,0.175,1.319-0.393,1.672l-13.812,8.572    C278.815,233.905,278.595,233.963,278.378,233.963z"/>
		</g>
		<g>
			<path
				fill="#1B236D"
				d="M277.358,238.752c-0.523,0-1.006-0.344-1.161-0.875c-0.187-0.644,0.181-1.319,0.823-1.506l21.43-6.275    c0.644-0.185,1.314,0.182,1.501,0.826c0.187,0.644-0.181,1.319-0.823,1.506l-21.43,6.275    C277.584,238.737,277.47,238.752,277.358,238.752z"/>
		</g>
		<g>
			<path
				fill="#1B236D"
				d="M296.737,245.678c-0.082,0-0.167-0.009-0.251-0.026l-19.91-4.228c-0.655-0.138-1.072-0.784-0.934-1.44    c0.139-0.657,0.788-1.074,1.434-0.937l19.91,4.228c0.655,0.138,1.072,0.784,0.934,1.44    C297.799,245.286,297.296,245.678,296.737,245.678z"/>
		</g>
		<g>
			<path
				fill="#1B236D"
				d="M291.321,257.555c-0.29,0-0.58-0.104-0.811-0.314l-15.896-14.422c-0.496-0.45-0.535-1.219-0.087-1.717    c0.448-0.498,1.215-0.536,1.709-0.087l15.896,14.422c0.496,0.45,0.535,1.219,0.087,1.717    C291.982,257.419,291.651,257.555,291.321,257.555z"/>
		</g>
		<g>
			<path
				fill="#1B236D"
				d="M263.559,264.138c-0.119,0-0.242-0.019-0.362-0.056c-0.638-0.202-0.993-0.883-0.793-1.523l6.103-19.547    c0.201-0.64,0.882-0.996,1.516-0.796c0.638,0.202,0.993,0.883,0.793,1.523l-6.103,19.547    C264.551,263.804,264.074,264.138,263.559,264.138z"/>
		</g>
		<g>
			<path
				fill="#1B236D"
				d="M28.075,24.312c-0.258,0-0.52-0.083-0.74-0.254c-0.529-0.411-0.625-1.174-0.216-1.705L38.76,7.261    c0.41-0.53,1.17-0.627,1.698-0.217c0.529,0.411,0.625,1.174,0.216,1.705L29.033,23.841C28.794,24.151,28.436,24.312,28.075,24.312z    "/>
		</g>
		<g>
			<path fill="#1B236D" d="M24.693,21.38c-0.603,0-1.125-0.452-1.2-1.068L21.19,1.363c-0.081-0.666,0.391-1.272,1.055-1.353    c0.656-0.086,1.267,0.392,1.347,1.06l2.303,18.949c0.081,0.666-0.391,1.272-1.055,1.353C24.79,21.377,24.741,21.38,24.693,21.38z"/>
		</g>
		<g>
			<path
				fill="#1B236D"
				d="M18.883,22.639c-0.492,0-0.953-0.303-1.135-0.794L10.925,3.361c-0.232-0.629,0.088-1.329,0.714-1.562    c0.623-0.234,1.322,0.088,1.556,0.717l6.823,18.485c0.232,0.629-0.088,1.329-0.714,1.562    C19.166,22.614,19.023,22.639,18.883,22.639z"/>
		</g>
		<g>
			<path
				fill="#1B236D"
				d="M13.65,24.704c-0.339,0-0.674-0.141-0.913-0.417L0.753,10.467C0.314,9.961,0.367,9.194,0.871,8.752    c0.504-0.44,1.267-0.388,1.708,0.119l11.984,13.82c0.439,0.506,0.385,1.273-0.118,1.715C14.215,24.605,13.932,24.704,13.65,24.704z    "/>
		</g>
		<g>
			<path
				fill="#1B236D"
				d="M15.101,32.689c-0.195,0-0.394-0.047-0.578-0.148L0.632,24.95c-0.587-0.32-0.804-1.058-0.484-1.648    c0.319-0.59,1.055-0.809,1.642-0.486l13.891,7.591c0.587,0.32,0.804,1.058,0.484,1.648C15.946,32.459,15.53,32.689,15.101,32.689z"/>
		</g>
		<linearGradient id="SVGID_9_" gradientUnits="userSpaceOnUse" x1="246.7136" y1="19.9983" x2="279.3916" y2="19.9983" gradientTransform="matrix(0.996 -0.0899 -0.0899 -0.996 -46.0929 266.5071)">
			<stop offset="0" style="stop-color:#EFEFEF"/>
			<stop offset="0.5538" style="stop-color:#D7D8D9"/>
		</linearGradient>
		<ellipse fill="url(#SVGID_9_)" cx="214.11" cy="222.94" rx="16.338" ry="16.404"/>
		<linearGradient id="SVGID_10_" gradientUnits="userSpaceOnUse" x1="-229.8552" y1="708.2002" x2="-197.1613" y2="708.2002" gradientTransform="matrix(0.9626 0.271 0.271 -0.9626 45.1083 830.3247)">
			<stop offset="0" style="stop-color:#EFEFEF"/>
			<stop offset="0.5538" style="stop-color:#D7D8D9"/>
		</linearGradient>
		<ellipse fill="url(#SVGID_10_)" cx="31.508" cy="90.75" rx="16.338" ry="16.404"/>
		<path
			fill="#FFFFFF"
			d="M108.931,210.477c-0.354-3.942,2.542-7.426,6.467-7.782c3.806-0.344,7.175,2.381,7.701,6.139l15.638-18.815   c-6.122-7.057-15.408-11.173-25.4-10.267c-10.254,0.929-18.836,6.924-23.528,15.301l19.217,16.101   C108.985,210.931,108.952,210.707,108.931,210.477z"/>
		<ellipse fill="#1B236D" cx="117.324" cy="214.414" rx="4.343" ry="4.36"/>
		<g>
			<polygon fill="#1B236D" points="100.55,192.644 117.641,212.986 116.811,213.689 99.721,193.347  "/>
		</g>
		<linearGradient id="SVGID_11_" gradientUnits="userSpaceOnUse" x1="343.3999" y1="-873.209" x2="359.5913" y2="-873.209" gradientTransform="matrix(0.7995 -0.6006 -0.6006 -0.7995 -532.1398 -250.1776)">
			<stop offset="0" style="stop-color:#92C4FE"/>
			<stop offset="1" style="stop-color:#5BABF2"/>
		</linearGradient>
		<polygon fill="url(#SVGID_11_)" points="284.662,238.43 271.76,248.161 262.067,235.208 274.969,225.477 "/>
		<linearGradient id="SVGID_12_" gradientUnits="userSpaceOnUse" x1="269.6617" y1="74.4896" x2="285.8208" y2="74.4896" gradientTransform="matrix(0.9611 -0.2762 -0.2762 -0.9611 -224.8361 174.3652)">
			<stop offset="0" style="stop-color:#92C4FE"/>
			<stop offset="1" style="stop-color:#5BABF2"/>
		</linearGradient>
		<polygon fill="url(#SVGID_12_)" points="31.51,31.609 16.001,36.084 11.543,20.513 27.053,16.038 "/>
		<polygon fill="#FFFFFF" points="111.182,154.051 122.717,153.006 123.758,164.587 112.223,165.632 "/>
		<polygon fill="#FFFFFF" points="128.483,152.483 140.018,151.438 141.059,163.019 129.524,164.064 "/>
		<polygon fill="#FFFFFF" points="145.784,150.915 157.319,149.87 158.36,161.451 146.825,162.496 "/>
		<polygon fill="#5BABF2" points="171.864,214.94 150.958,216.835 147.38,177.027 168.285,175.132 "/>
		<ellipse fill="#F92424" cx="32.4" cy="90.248" rx="5.067" ry="5.087"/>
		<ellipse fill="#F92424" cx="214.661" cy="222.013" rx="5.067" ry="5.087"/>
		<ellipse fill="#F92424" cx="184.699" cy="147.385" rx="5.067" ry="5.087"/>
		<ellipse fill="#F92424" cx="77.358" cy="157.84" rx="5.067" ry="5.087"/>
	</g>
</svg>
